<?xml version="1.0" encoding="utf-8"?>
<!-- Generator: Adobe Illustrator 16.0.4, SVG Export Plug-In . SVG Version: 6.00 Build 0)  -->
<!DOCTYPE svg PUBLIC "-//W3C//DTD SVG 1.1//EN" "http://www.w3.org/Graphics/SVG/1.1/DTD/svg11.dtd">
<svg version="1.1" id="Layer_1" xmlns="http://www.w3.org/2000/svg" xmlns:xlink="http://www.w3.org/1999/xlink" x="0px" y="0px"
	 width="805px" height="106px" viewBox="0 0 805 106" enable-background="new 0 0 805 106" xml:space="preserve">
<g>
	<path fill="#FE5000" d="M788.596,22.551c-1.466-1.776-3.057-3.444-4.76-4.992c-0.568-0.516-1.148-1.019-1.74-1.507
		c-8.289-6.84-18.915-10.949-30.5-10.949H157.199c-6.621,0-12.928,1.342-18.664,3.768c-1.435,0.607-2.833,1.281-4.192,2.019
		c-3.397,1.845-6.546,4.089-9.384,6.669c-1.136,1.032-2.221,2.117-3.253,3.253c-0.516,0.567-1.019,1.147-1.507,1.739
		c-3.42,4.145-6.157,8.873-8.04,14.014c-1.882,5.141-2.909,10.694-2.909,16.487c0,5.792,1.027,11.346,2.909,16.485
		c1.883,5.141,4.62,9.87,8.04,14.014c0.488,0.592,0.991,1.172,1.507,1.74c1.032,1.135,2.117,2.221,3.253,3.253
		c2.838,2.579,5.987,4.823,9.384,6.669c1.359,0.738,2.757,1.412,4.192,2.02c5.736,2.427,12.043,3.768,18.664,3.768h594.396
		c1.655,0,3.29-0.083,4.902-0.247s3.2-0.407,4.761-0.727c0.78-0.16,1.554-0.338,2.32-0.535c1.532-0.395,3.035-0.862,4.503-1.4
		c2.203-0.807,4.331-1.771,6.369-2.878c2.718-1.477,5.277-3.208,7.645-5.162c1.185-0.978,2.32-2.01,3.405-3.095
		c4.338-4.339,7.85-9.505,10.276-15.241c0.91-2.15,1.667-4.383,2.258-6.681c0.395-1.532,0.715-3.093,0.957-4.682
		c0.364-2.38,0.553-4.818,0.553-7.301C799.545,41.466,795.436,30.84,788.596,22.551"/>
	<path d="M109.778,53.052c0-26.483,21.466-47.949,47.949-47.949H52.949c-6.621,0-12.928,1.342-18.665,3.768
		c-1.434,0.607-2.832,1.281-4.191,2.019c-3.397,1.845-6.546,4.089-9.384,6.669c-1.136,1.032-2.221,2.117-3.253,3.253
		c-0.516,0.567-1.019,1.147-1.507,1.739c-3.42,4.145-6.157,8.873-8.04,14.014C6.027,41.706,5,47.259,5,53.052
		c0,5.792,1.027,11.346,2.909,16.485c1.883,5.141,4.62,9.87,8.04,14.014c0.488,0.592,0.991,1.172,1.507,1.74
		c1.032,1.135,2.117,2.221,3.253,3.253c2.838,2.579,5.987,4.823,9.384,6.669c1.359,0.738,2.757,1.412,4.191,2.02
		C40.021,99.659,46.328,101,52.949,101h104.778C131.244,101,109.778,79.531,109.778,53.052"/>
	<path fill="#FFFFFF" d="M751.596,0.103H157.564c-0.001,0-0.002,0-0.002,0H52.949C23.753,0.103,0,23.856,0,53.052
		C0,82.248,23.753,106,52.949,106h698.646c29.196,0,52.949-23.752,52.949-52.948C804.545,23.856,780.792,0.103,751.596,0.103
		 M798.035,65.034c-0.591,2.298-1.348,4.53-2.258,6.681c-2.427,5.736-5.938,10.902-10.276,15.241
		c-1.085,1.085-2.221,2.117-3.405,3.095c-2.367,1.954-4.927,3.686-7.645,5.162c-2.038,1.107-4.166,2.071-6.369,2.878
		c-1.468,0.538-2.971,1.006-4.503,1.4c-0.767,0.197-1.54,0.375-2.32,0.535c-1.561,0.319-3.148,0.562-4.761,0.727
		S753.251,101,751.596,101H52.949c-6.621,0-12.928-1.341-18.664-3.768c-1.435-0.607-2.833-1.281-4.192-2.02
		c-3.397-1.846-6.546-4.09-9.384-6.669c-1.136-1.032-2.221-2.118-3.253-3.253c-0.516-0.568-1.019-1.148-1.507-1.74
		c-3.42-4.144-6.157-8.873-8.04-14.014C6.027,64.397,5,58.844,5,53.052c0-5.793,1.027-11.346,2.909-16.487
		c1.883-5.141,4.62-9.869,8.04-14.014c0.488-0.592,0.991-1.172,1.507-1.739c1.032-1.136,2.117-2.221,3.253-3.253
		c2.838-2.58,5.987-4.824,9.384-6.669c1.359-0.738,2.757-1.412,4.192-2.019c5.736-2.426,12.043-3.768,18.664-3.768h698.646
		c11.585,0,22.211,4.109,30.5,10.949c0.592,0.488,1.172,0.991,1.74,1.507c1.703,1.548,3.294,3.216,4.76,4.992
		c6.84,8.289,10.949,18.915,10.949,30.501c0,2.482-0.188,4.921-0.553,7.301C798.75,61.941,798.43,63.502,798.035,65.034z"/>
	<path fill-rule="evenodd" clip-rule="evenodd" fill="#FFFFFF" d="M57.434,26.227c0.144-0.434,0-0.867-0.154-1.299
		c-0.144-0.57-0.714-0.859-1.715-1.012c-1.019-0.279-1.877,0-2.887,0.578c-0.867,0.721-1.723,1.443-2.3,2.31l-4.611-1.444
		c-1.002-0.289-2.013-0.721-3.015-0.866l-1.875-0.713c-1.012-0.289-2.013-0.432-3.169-0.577c-1.434,0-2.733,0.433-3.889,1.435
		c-0.144,0.143-0.289,0.297-0.431,0.576c-0.137,0.145-0.137,0.291-0.137,0.434c-0.144,0.288-0.144,0.578,0.137,0.722
		c0,0.289,0.142,0.425,0.431,0.568c0.145,0,0.289,0.153,0.289,0.153l19.004,9.637l9.212,8.356
		c-5.477,2.59-10.937,5.901-16.413,9.646l-7.769,5.611l-10.369-3.311c-3.446-1.155-5.467-0.577-6.189,1.436l9.068,8.779
		l-2.012,2.885h3.889l2.446,11.082c2.156,0.721,3.454-0.146,3.889-2.88l2.589-11.8l10.07-4.893l15.413-9.654
		c2.299,12.812,3.022,22.892,2.01,30.373c-0.866,6.19,0,7.923,2.734,4.754c0.146,0,0.289-0.144,0.289-0.288
		c0.866-0.721,1.579-1.587,2.302-2.735c0.721-1.154,1.155-2.589,1.155-4.032c0.143-0.568,0.143-1.29,0.287-1.867
		c0.137-0.288,0.137-0.435,0.137-0.578c0.289-1.578,0.577-3.167,0.866-4.89h0.143c1.013-0.29,1.879-0.577,2.734-0.866
		c0.435-0.288,0.867-0.434,1.3-0.723c0.579-0.425,1.003-1.011,1.003-1.58c0.153-1.009-0.135-1.587-0.858-2.02
		c-0.867-0.435-1.58-0.569-2.589-0.569c-0.289,0.135-0.577,0.135-1.012,0.281l1.58-8.636h0.145c0.866-0.144,1.731-0.289,2.599-0.578
		c1.146-0.145,2.01-0.712,2.732-1.725c0.433-0.432,0.578-0.864,0.578-1.441c-0.145-0.28-0.145-0.435-0.145-0.714
		c-0.577-1.155-1.587-1.734-2.877-1.723c-0.298,0-0.434-0.011-0.577,0.135h-0.579l1.58-8.202l16.701-11.379
		c3.312-3.302,4.178-5.467,2.59-6.613c-0.289-0.289-1.154-0.434-2.59-0.297c-0.431,0.008-0.866,0.008-1.29,0.008
		c-0.435,0.145-0.866,0.145-1.299,0.289c-1.154,0.144-2.454,0.433-3.601,1.002c-0.144,0.008-0.287,0-0.433,0.144
		c-1.29,0.577-2.588,1.155-3.743,1.877c-0.435,0.288-0.859,0.577-1.29,0.713c-0.578,0.432-1.148,0.721-1.733,1.01l-8.059,4.466
		l-8.491-2.3c0.29-0.299,0.578-0.722,0.723-1.012c0-0.144,0.28-0.288,0.424-0.431c0.144-0.29,0.288-0.579,0.288-0.866
		c0.145-0.146,0.145-0.29,0.145-0.435c0-0.143,0-0.279,0-0.432c0-0.28,0-0.425-0.145-0.57c-0.288-1.154-1.145-1.732-2.445-1.732
		c-0.145,0.146-0.434,0.146-0.722,0.289c-0.721,0.289-1.29,0.578-1.723,1.155c-0.577,0.433-1.154,1.011-1.589,1.579
		c-0.143,0-0.289,0.146-0.289,0.289c-0.135,0.144-0.28,0.289-0.28,0.433L55.7,29.104c0.579-0.721,1.011-1.153,1.3-1.723
		C57.145,26.948,57.434,26.515,57.434,26.227"/>
	<polyline fill="#FFFFFF" points="142.653,29.526 157.585,29.526 168.523,60.008 179.465,29.526 194.121,29.526 174.579,78.037 
		162.194,78.037 142.653,29.526 	"/>
	<polyline fill="#FFFFFF" points="197.079,29.526 210.429,29.526 210.429,65.995 233.756,65.995 233.756,77.692 197.079,77.692 
		197.079,29.526 	"/>
	<rect x="239.352" y="29.526" fill="#FFFFFF" width="13.418" height="48.167"/>
	<polyline fill="#FFFFFF" points="259.858,29.526 298.528,29.526 298.528,40.88 273,40.88 273,48.173 296.119,48.173 
		296.119,58.701 273,58.701 273,66.338 298.871,66.338 298.871,77.692 259.858,77.692 259.858,29.526 	"/>
	<path fill="#FFFFFF" d="M328.597,78.656c-3.761,0-7.237-0.609-10.426-1.824c-3.187-1.214-5.952-2.925-8.291-5.126
		c-2.338-2.202-4.175-4.828-5.504-7.879c-1.333-3.05-1.995-6.41-1.995-10.08v-0.139c0-3.484,0.65-6.753,1.951-9.804
		c1.3-3.05,3.093-5.711,5.374-7.982c2.281-2.27,5.015-4.049,8.199-5.332c3.182-1.284,6.632-1.928,10.349-1.928
		c4.264,0,7.947,0.619,11.043,1.859c3.095,1.238,5.928,2.957,8.499,5.16l-7.846,9.427c-1.743-1.468-3.52-2.591-5.333-3.371
		c-1.813-0.781-3.91-1.171-6.296-1.171c-1.742,0-3.36,0.345-4.851,1.033c-1.491,0.688-2.786,1.629-3.887,2.821
		c-1.103,1.193-1.974,2.593-2.614,4.198c-0.645,1.606-0.965,3.325-0.965,5.159v0.139c0,1.927,0.323,3.716,0.967,5.366
		c0.643,1.652,1.554,3.063,2.727,4.233c1.173,1.168,2.555,2.087,4.141,2.751c1.587,0.667,3.349,0.998,5.281,0.998
		c3.132,0,5.708-0.664,7.734-1.995V59.32h-9.495v-9.771h22.156v21.675c-2.57,2.111-5.598,3.877-9.084,5.299
		C336.945,77.943,333.001,78.656,328.597,78.656"/>
	<polyline fill="#FFFFFF" points="366.991,41.223 352.541,41.223 352.541,29.526 394.789,29.526 394.789,41.223 380.341,41.223 
		380.341,77.692 366.991,77.692 366.991,41.223 	"/>
	<rect x="400.525" y="29.526" fill="#FFFFFF" width="13.418" height="48.167"/>
	<polyline fill="#FFFFFF" points="470.872,29.526 484.22,29.526 484.22,49.068 500.804,29.526 516.629,29.526 498.395,50.237 
		517.248,77.692 501.215,77.692 489.107,59.803 484.22,65.238 484.22,77.692 470.872,77.692 470.872,29.526 	"/>
	<polyline fill="#FFFFFF" points="522.045,29.526 560.717,29.526 560.717,40.88 535.188,40.88 535.188,48.173 558.308,48.173 
		558.308,58.701 535.188,58.701 535.188,66.338 561.061,66.338 561.061,77.692 522.045,77.692 522.045,29.526 	"/>
	<polyline fill="#FFFFFF" points="579.319,41.223 564.868,41.223 564.868,29.526 607.117,29.526 607.117,41.223 593.999,41.223 
		593.999,77.692 579.319,77.692 579.319,41.223 	"/>
	<path fill="#FFFFFF" d="M631.503,78.518c-4.315,0-8.41-0.67-12.286-2.007c-3.877-1.34-7.305-3.348-10.286-6.024l7.43-8.896
		c4.817,3.854,10.023,5.78,15.623,5.78c1.791,0,3.154-0.286,4.096-0.858c0.938-0.572,1.409-1.386,1.409-2.438v-0.138
		c0-0.503-0.114-0.949-0.342-1.339c-0.232-0.391-0.656-0.768-1.275-1.135c-0.619-0.365-1.444-0.719-2.478-1.063
		c-1.032-0.344-2.37-0.698-4.024-1.065c-2.572-0.594-4.958-1.247-7.158-1.956c-2.204-0.71-4.118-1.626-5.747-2.749
		c-1.629-1.121-2.913-2.518-3.853-4.189c-0.941-1.671-1.409-3.745-1.409-6.217v-0.137c0-2.244,0.421-4.304,1.271-6.182
		c0.849-1.877,2.086-3.503,3.714-4.876c1.63-1.374,3.592-2.439,5.886-3.195c2.291-0.754,4.885-1.133,7.778-1.133
		c4.127,0,7.809,0.543,11.042,1.629c3.233,1.084,6.16,2.689,8.774,4.81l-6.675,9.456c-2.2-1.558-4.461-2.741-6.776-3.544
		c-2.318-0.802-4.556-1.204-6.709-1.204c-1.608,0-2.815,0.298-3.616,0.894c-0.804,0.595-1.204,1.328-1.204,2.198v0.137
		c0,0.549,0.125,1.029,0.38,1.442c0.249,0.412,0.687,0.79,1.306,1.134c0.619,0.344,1.47,0.687,2.549,1.031
		c1.077,0.343,2.443,0.698,4.096,1.063c2.751,0.596,5.239,1.293,7.464,2.094c2.227,0.803,4.117,1.776,5.678,2.92
		c1.559,1.146,2.752,2.531,3.576,4.156c0.827,1.626,1.239,3.562,1.239,5.804v0.138c0,2.474-0.471,4.671-1.409,6.594
		c-0.942,1.924-2.262,3.561-3.958,4.912c-1.698,1.351-3.737,2.381-6.123,3.09C637.098,78.163,634.438,78.518,631.503,78.518"/>
	<polyline fill="#FFFFFF" points="673.544,29.526 686.025,29.526 705.884,54.984 705.884,29.526 719.026,29.526 719.026,77.692 
		707.305,77.692 686.688,51.27 686.688,77.692 673.544,77.692 673.544,29.526 	"/>
	<path d="M669.854,72.747c0,4.017-3.258,7.271-7.273,7.271c-4.018,0-7.272-3.255-7.272-7.271s3.255-7.272,7.272-7.272
		C666.596,65.475,669.854,68.73,669.854,72.747"/>
	<path fill="#FFFFFF" d="M455.697,60.754c-0.744,0.882-1.498,1.683-2.263,2.403c-0.767,0.719-1.581,1.345-2.438,1.879
		c-0.858,0.533-1.809,0.938-2.853,1.218c-1.044,0.277-2.191,0.417-3.445,0.417c-1.718,0-3.283-0.337-4.699-1.009
		c-1.417-0.674-2.633-1.589-3.655-2.75c-1.021-1.16-1.821-2.54-2.398-4.141c-0.584-1.602-0.873-3.307-0.873-5.117v-0.139
		c0-1.763,0.289-3.434,0.873-5.012c0.577-1.578,1.378-2.945,2.398-4.106c1.022-1.161,2.238-2.078,3.655-2.751
		c1.416-0.671,2.981-1.009,4.699-1.009c2.367,0,4.384,0.51,6.057,1.532c1.668,1.02,3.199,2.414,4.592,4.176l10.162-7.866
		c-1.067-1.484-2.285-2.853-3.65-4.105c-1.372-1.254-2.904-2.334-4.596-3.237c-1.695-0.906-3.563-1.601-5.604-2.089
		c-2.044-0.487-4.313-0.732-6.822-0.732c-3.714,0-7.135,0.651-10.267,1.951c-3.13,1.297-5.837,3.097-8.111,5.393
		c-2.271,2.297-4.059,4.989-5.356,8.075c-1.283,3.046-1.927,6.307-1.943,9.78h-0.007v0.277c0,3.62,0.662,6.973,1.983,10.059
		c1.321,3.087,3.107,5.756,5.36,8.006c0.949,0.948,2.109,1.82,3.357,2.611c1.449,1.001,3.016,1.867,4.717,2.573
		c1.233,0.511,2.524,0.893,3.848,1.203c0.184,0.048,0.371,0.09,0.555,0.136c0.181,0.036,0.352,0.091,0.533,0.125
		c1.473,0.316,3.017,0.486,4.776,0.486c0.118,0,0.229-0.008,0.348-0.01c0.07,0,0.138,0.01,0.207,0.01v-0.016
		c2.465-0.036,4.713-0.303,6.718-0.82c2.157-0.557,4.104-1.322,5.848-2.297c1.74-0.976,3.294-2.136,4.66-3.481
		c1.37-1.346,2.636-2.807,3.796-4.384L455.697,60.754"/>
	<polyline fill="#FFFFFF" points="724.504,29.526 737.854,29.526 737.854,65.995 761.181,65.995 761.181,77.692 724.504,77.692 
		724.504,29.526 	"/>
</g>
</svg>
