<?xml version="1.0" standalone="no"?>
<!DOCTYPE svg PUBLIC "-//W3C//DTD SVG 1.1//EN" "http://www.w3.org/Graphics/SVG/1.1/DTD/svg11.dtd" >
<svg xmlns="http://www.w3.org/2000/svg">
<metadata>Generated by IcoMoon</metadata>
<defs>
<font id="icomoon" horiz-adv-x="1024">
<font-face units-per-em="1024" ascent="960" descent="-64" />
<missing-glyph horiz-adv-x="1024" />
<glyph unicode="&#x20;" d="" horiz-adv-x="512" />
<glyph unicode="&#xe600;" d="M750.705 714.25h-311.603c-25.969 0-38.595-12.616-38.595-38.584v-488.335c0-3.082 2.509-5.581 5.591-5.581h135.823c3.092 0 5.601 2.499 5.601 5.581v68.209c0 6.175 5.018 11.172 11.203 11.172h72.346c6.185 0 11.203-4.997 11.203-11.172v-68.209c0-3.082 2.509-5.581 5.601-5.581h135.834c3.103 0 5.601 2.499 5.601 5.581v488.335c0 25.969-12.626 38.584-38.605 38.584zM746.506 389.908v-57.6h-77.599v57.6h77.599zM668.908 425.093v57.631h77.599v-57.631h-77.599zM668.908 517.908v57.59h77.599v-57.59h-77.599zM668.908 610.714v57.6h77.599v-57.6h-77.599zM556.114 610.714v57.6h77.588v-57.6h-77.588zM633.702 575.498v-57.59h-77.588v57.59h77.588zM633.702 482.724v-57.631h-77.588v57.631h77.588zM633.702 389.908v-57.6h-77.588v57.6h77.588zM443.31 610.714v57.6h77.599v-57.6h-77.599zM520.899 575.498v-57.59h-77.599v57.59h77.599zM520.899 482.724v-57.631h-77.599v57.631h77.599zM520.899 389.908v-57.6h-77.599v57.6h77.599zM383.222 451.625c-20.429 10.332-40.202 15.575-58.767 15.575-16.609 0-29.911-4.168-39.854-9.114 4.495 11.848 12.8 25.764 28.006 38.81 2.693 2.294 3.441 6.277 1.823 9.687-1.464 3.062-4.485 5.038-7.895 5.038v0c-0.952-0.020-23.583-0.686-45.128-15.913-11.52-8.131-20.552-18.954-26.962-32.44-0.215-0.543-1.659-4.116-2.775-8.274-2.109 0.164-4.127 0.215-5.775 0.215l-3.359-0.072c-14.438-1.495-27.607-6.39-39.168-14.541-20.941-14.787-29.194-34.908-30.106-37.253-1.137-3.103-0.287-6.676 2.13-9.062 2.591-2.621 6.523-3.379 9.748-1.567 15.032 8.632 30.484 13.158 45.967 13.466-15.903-15.391-33.393-44.36-26.88-95.222 0.471-3.297 2.898-6.195 6.042-7.219 0.553-0.184 1.884-0.399 2.468-0.399 3.246 0 6.031 1.987 7.107 5.059 0.123 0.338 12.349 34.355 43.346 56.248 6.318 4.485 13.261 8.274 20.695 11.284 1.28-1.546 2.56-3.205 3.891-4.977 2.191-2.744 4.352-5.693 6.513-9.052 2.15-3.103 4.239-6.38 6.298-10.097 2.079-3.389 4.014-7.014 5.908-10.875 3.359-6.502 6.646-14.172 10.342-24.084 3.072-8.479 5.755-17.316 7.967-26.296 10.199-40.704 11.1-82.196 10.383-103.004-0.051-1.495 0.502-2.959 1.536-4.055s2.468-1.71 3.963-1.731h35.932c0.031 0 0.051 0 0.082 0 0.072 0 0.133 0 0.205 0 3.082 0 5.591 2.499 5.591 5.581 0 0.522-0.072 1.024-0.205 1.495-0.143 28.436-2.929 70.656-15.145 113.080-3 10.455-6.482 20.634-10.363 30.259-4.618 11.284-8.868 20.275-13.302 28.16-2.519 4.762-5.12 9.175-7.608 12.964-2.324 3.871-4.936 7.731-8.1 11.981-2.591 3.758-5.396 7.383-8.479 10.936-0.881 1.075-1.761 2.14-2.652 3.185 5.161 5.663 10.629 10.537 16.323 14.541 30.72 21.719 65.669 22.057 67.584 22.057 0.010 0 0.010 0 0.020 0 1.434 0 2.857 0.42 4.434 1.454 1.843 1.372 2.97 3.512 3.092 5.949 0.154 3.338-1.802 6.646-4.874 8.223z" />
<glyph unicode="&#xe601;" d="M749.302 252.877c-0.963 3.369-1.884 6.738-2.796 10.117-2.12 7.69-4.28 15.606-6.84 23.327-2.396 7.209-5.243 12.995-8.663 17.644-13.783 18.698-32.655 28.17-56.044 28.17h-0.143c-41.257-0.041-82.524-0.061-123.781-0.072v25.743h84.316c26.644 0 53.258 0 79.862 0 17.838 0 26.522 8.622 26.522 26.358v280.484c0 17.459-8.796 26.307-26.143 26.317l-406.989-0.010c-16.998 0-25.999-8.97-25.999-25.928v-279.931c0-18.872 8.387-27.279 27.197-27.279h163.523v-25.743h-38.052c-26.327 0-52.634 0-78.961-0.010-6.052 0-12.329-0.225-19.149-0.686-21.381-1.464-46.377-21.381-52.419-41.789-3.758-12.708-7.373-26.040-10.998-40.714-4.321-17.5 6.502-36.465 23.665-41.39 5.069-1.454 10.936-2.202 17.439-2.212 41.011-0.082 81.418-0.092 115.538-0.092l79.78 0.010v-0.092h130.601c7.383 0 14.776-0.020 22.2-0.041 7.404-0.010 14.817-0.031 22.2-0.031 0.020 0 0.020 0 0.041 0 10.936 0 19.937 0.031 28.365 0.113 13.425 0.133 24.484 5.079 31.119 13.937 6.625 8.899 8.264 20.89 4.608 33.802zM696.044 645.745v-242.473h-367.708v242.473h367.708z" />
<glyph unicode="&#xe602;" d="M617.953 546.458l-2.12 30.577c-11.264 64.737-55.624 103.68-102.543 105.052v0.051c-0.43 0-0.86-0.010-1.29-0.010-0.451 0-0.881 0.010-1.311 0.010v-0.051c-46.899-1.372-91.269-40.315-102.533-105.052l-2.12-30.577c-6.257-55.757 46.305-144.691 104.653-147.046v-0.123c0.43 0 0.86 0.051 1.311 0.051 0.43 0 0.86-0.051 1.29-0.051v0.123c58.348 2.355 110.93 91.29 104.663 147.046zM736.082 241.121c0 0.205 0.031 0.358 0.031 0.563h-0.072c-1.884 67.676-123.443 122.296-224.041 122.296-100.588 0-222.157-54.62-224.051-122.296h-0.061c0-0.205 0.051-0.358 0.051-0.563 0-0.338-0.051-0.676-0.051-1.024h0.154c0.809-9.964 6.267-26.235 27.658-26.235h392.602c21.391 0 26.849 16.282 27.679 26.235h0.133c0 0.338-0.031 0.686-0.031 1.024z" />
<glyph unicode="&#xe603;" d="M418.755 314.87c0-10.732 8.673-19.425 19.395-19.425 0 0 7.711-0.84 15.544 3.901 7.823 4.741 211.968 128.082 211.968 128.082v0.174c8.653 2.755 14.95 10.865 14.95 20.439s-6.298 17.684-14.95 20.429v0.174c0 0-206.141 124.723-211.968 128.082-5.816 3.348-15.544 3.881-15.544 3.881-10.721 0-19.395-8.704-19.395-19.415v-81.408h-139.735c-10.721 0-19.415-8.684-19.415-19.395v-64.707c0-10.711 8.704-19.415 19.415-19.415h139.735v-81.398zM721.91 704.399h-285.235c-12.165 0-21.996-9.851-21.996-21.996 0-12.155 9.841-22.016 21.996-22.016h283.709v-424.806h-283.709c-12.165 0-21.996-9.841-21.996-21.975 0-12.165 9.841-21.996 21.996-21.996h285.235c23.419 0 42.486 19.036 42.486 42.455v427.848c0 23.439-19.067 42.486-42.486 42.486z" />
<glyph unicode="&#xe604;" d="M347.873 668.047c0 14.797-0.031 28.518 0.020 42.23 0.051 10.301 1.946 12.247 12.349 12.329 13.23 0.082 26.45 0.082 39.67 0 10.783-0.072 12.401-1.823 12.421-12.943 0.010-13.466 0-26.931 0-40.991 71.045 0 141.609 0 213.524 0 0 10.496-0.031 21.156 0.010 31.826 0.092 22.211-3.021 22.385 22.589 22.149 9.994-0.092 19.978 0.082 29.962-0.041 9.646-0.123 11.387-1.894 11.469-11.356 0.133-13.496 0.133-26.982 0.215-40.479 0-0.492 0.338-0.993 0.829-2.324 2.499-0.113 5.356-0.358 8.192-0.358 26.214-0.020 36.198 0.010 62.382-0.031 10.793-0.020 12.913-2.079 12.913-12.667 0.020-172.759 0.020-296.919 0-469.668 0-10.486-1.812-12.339-12.257-12.339-172.759-0.031-313.098-0.031-485.868 0-10.056 0-11.756 1.823-11.756 11.837-0.031 38.871-0.041 61.542 0 100.413 0 9.646 1.802 11.592 11.121 11.643 14.561 0.123 12.954-0.031 27.515 0.072 7.322 0.051 10.854-2.836 10.701-10.66-0.328-17.265-0.113-34.54-0.102-51.825 0-12.8 1.157-13.988 13.711-13.998 61.573-0.010 123.095 0 184.637 0 65.864 0 131.738 0 197.591 0 12.902 0.010 13.65 0.799 13.65 13.875 0 99.891 0 199.752 0 299.633 0 12.104-1.454 13.629-13.292 13.629-127.939 0.010-255.877 0.010-383.857 0-11.428 0-12.882-1.546-12.892-13.138-0.041-12.954-0.195-25.907 0.051-38.871 0.123-7.537-3.195-10.875-10.66-10.824-14.838 0.123-13.486-0.061-28.324 0.072-8.643 0.082-10.854 2.417-10.865 11.305-0.031 63.99-0.031 95.56-0.010 159.539 0.010 9.656 2.232 11.93 11.93 11.95 26.173 0.082 36.168 0.031 62.341 0.031 2.918-0.020 5.868-0.020 10.086-0.020z" />
<glyph unicode="&#xe605;" d="M393.595 314.952c0-4.577 3.707-8.294 8.305-8.294 0 0 3.287-0.379 6.636 1.638 3.369 2.038 110.551 74.65 110.551 74.65v0.072c3.707 1.167 6.41 4.649 6.41 8.755 0 4.076-2.703 7.557-6.41 8.745v0.082c0 0-108.042 73.185-110.551 74.639-2.488 1.423-6.636 1.649-6.636 1.649-4.588 0-8.305-3.707-8.305-8.315v-44.759h-238.111c-4.577 0-8.305-3.707-8.305-8.294v-47.524c0-4.577 3.717-8.315 8.305-8.315h238.111v-44.728z" />
<glyph unicode="&#xe606;" d="M721.377 332.483c-28.385 16.343-56.064 33.915-84.060 50.934-10.547 6.41-17.5 5.837-26.317-2.929-6.922-6.861-13.138-14.449-19.599-21.77-5.868-6.656-11.51-13.517-17.469-20.070-5.571-6.113-12.36-8.96-20.521-5.755-8.356 3.297-17.039 6.185-24.801 10.66-17.183 9.933-40.765 30.444-58.296 48.271l-14.49 14.51c-17.838 17.51-38.349 41.103-48.282 58.286-4.485 7.741-7.363 16.425-10.65 24.801-3.215 8.151-0.358 14.961 5.745 20.511 6.564 5.97 13.425 11.602 20.081 17.469 7.322 6.461 14.899 12.677 21.77 19.599 8.765 8.837 9.329 15.79 2.929 26.327-17.009 28.006-34.591 55.675-50.934 84.050-5.53 9.585-12.431 11.581-21.903 9.779-3.707-0.727-7.557-1.556-10.865-3.277-21.924-11.52-41.318-26.173-55.173-47.135-13.271-20.070-18.668-41.923-15.37-66.109 5.837-42.803 20.326-82.616 42.629-119.296 20.255-33.331 43.745-63.017 70.267-89.262 26.235-26.511 55.931-50.033 89.262-70.277 36.68-22.282 76.462-36.792 119.296-42.629 24.177-3.297 46.019 2.109 66.099 15.38 20.972 13.855 35.625 33.239 47.145 55.173 1.72 3.287 2.55 7.148 3.267 10.865 1.833 9.472-0.164 16.364-9.759 21.893z" />
<glyph unicode="&#xe607;" d="M804.106 513.884c0 12.431-6.287 18.739-18.739 18.739h-36.413c-2.273 0-4.69-0.379-7.567-1.188l-4.567-1.28-27.638 63.037c-24.228 66.079-68.393 77.998-103.465 77.998h-187.412c-35.082 0-79.237-11.919-103.465-77.998l-27.638-63.037-4.577 1.28c-2.877 0.809-5.304 1.188-7.567 1.188h-36.424c-12.452 0-18.739-6.308-18.739-18.739 0-16.394 13.629-37.54 28.129-37.54h17.009l-15.841-38.4c-5.816-15.606-8.745-32.358-8.745-49.859 0-30.024 8.643-57.938 24.33-78.602l1.085-1.444v-71.956c0-6.236 5.069-11.264 11.295-11.264h44.718c6.195 0 11.274 5.018 11.274 11.264v44.319h357.714v-44.319c0-6.236 5.069-11.264 11.274-11.264h44.718c6.216 0 11.295 5.018 11.295 11.264v71.956l1.085 1.444c15.688 20.664 24.33 48.579 24.33 78.602 0 17.5-2.929 34.253-8.745 49.859l-15.841 38.4h17.009c14.49 0 28.119 21.146 28.119 37.54zM354.15 594.545c15.862 40.765 53.883 40.765 68.188 40.765h179.313c14.305 0 52.326 0 68.188-40.765l48.527-117.914-8.038 0.082-404.705-0.082 48.527 117.914zM350.874 334.828c-6.758-6.769-14.51-10.209-22.979-10.209-11.377 0-23.521 6.349-36.035 18.852-11.397 11.407-17.664 22.487-18.678 32.963-0.932 9.544 2.56 18.565 10.025 26.040 15.862 15.831 37.171 13.189 59.003-8.643 29.44-29.399 18.043-49.572 8.663-59.003zM619.561 325.274h-215.112c-7.383 0-13.363 5.99-13.363 13.373 0 7.373 5.98 13.384 13.363 13.384h215.112c7.383 0 13.363-6.011 13.363-13.384 0-7.383-5.98-13.373-13.363-13.373zM732.14 343.47c-12.513-12.503-24.648-18.852-36.035-18.852-8.468 0-16.22 3.441-22.979 10.209-9.38 9.431-20.777 29.604 8.663 59.003 21.832 21.832 43.141 24.474 59.003 8.643 7.465-7.465 10.957-16.497 10.025-26.040-1.014-10.476-7.281-21.555-18.678-32.963z" />
<glyph unicode="&#xe608;" d="M793.989 480.113c-20.797 9.585-43.131 11.397-65.546 11.715-26.286 0.369-52.582-0.072-78.858 0.297-3.287 0.041-7.516 2.048-9.636 4.547-15.698 18.452-31.212 37.089-46.715 55.716h3.942c10.947 0 19.876 8.919 19.876 19.876 0 10.947-8.929 19.866-19.876 19.866h-37.038c-14.551 17.48-29.112 34.939-43.674 52.419h4.188c10.936 0 19.855 8.909 19.855 19.866 0 10.967-8.919 19.866-19.855 19.866h-37.356c-18.504 22.18-36.997 44.36-55.521 66.499-1.925 2.273-5.304 4.557-8.090 4.659-12.718 0.502-25.457 0.225-39.803 0.225 44.206-88.463 87.747-175.606 131.789-263.741-58.593 0-115.313-0.051-172.042 0.215-2.785 0.020-6.062 2.519-8.274 4.721-26.245 26.020-52.316 52.214-78.541 78.285-1.925 1.915-4.526 4.291-6.892 4.372-13.455 0.42-26.931 0.215-41.236 0.215 1.014-3.635 1.669-6.359 2.56-8.991 12.708-38.216 25.375-76.452 38.328-114.586 1.966-5.765 1.812-10.772-0.133-16.476-12.872-37.888-25.436-75.878-38.072-113.848-0.942-2.816-1.556-5.755-2.57-9.492 12.892 0 24.852-0.399 36.741 0.215 3.912 0.215 8.622 2.048 11.377 4.741 26.204 25.713 52.111 51.702 77.947 77.773 3.523 3.564 7.014 5.243 12.165 5.222 53.627-0.195 107.244-0.102 160.85-0.133 2.181 0 4.372-0.266 7.547-0.461-43.981-88.013-87.511-175.073-131.574-263.24 13.23 0 25.129 0.266 36.997-0.133 5.274-0.195 8.499 1.751 11.756 5.683 18.237 21.944 36.495 43.827 54.743 65.772h37.274c10.936 0 19.855 8.899 19.855 19.845 0 10.957-8.919 19.866-19.855 19.866h-4.188c14.561 17.48 29.133 34.939 43.704 52.419h37.007c10.947 0 19.876 8.899 19.876 19.845 0 10.967-8.929 19.886-19.876 19.886h-3.799c15.421 18.463 30.843 36.946 46.275 55.409 2.243 2.662 6.748 4.833 10.24 4.895 26.296 0.41 52.593-0.072 78.858 0.307 23.777 0.338 47.452 2.345 69.038 13.548 12.216 6.349 22.006 15.452 21.535 30.792-0.543 16.568-11.704 25.262-25.303 31.529z" />
<glyph unicode="&#xe609;" d="M230.011 480.123c20.797 9.585 43.131 11.397 65.546 11.715 26.286 0.369 52.582-0.072 78.858 0.287 3.287 0.041 7.516 2.048 9.636 4.547 15.698 18.452 31.212 37.089 46.715 55.706h-3.942c-10.947 0-19.876 8.919-19.876 19.876 0 10.936 8.929 19.855 19.876 19.855h37.038c14.551 17.48 29.112 34.939 43.674 52.419h-4.188c-10.936 0-19.855 8.909-19.855 19.855 0 10.967 8.919 19.866 19.855 19.866h37.356c18.504 22.18 36.997 44.349 55.521 66.488 1.925 2.284 5.304 4.557 8.090 4.659 12.718 0.502 25.457 0.236 39.803 0.236-44.206-88.463-87.747-175.606-131.789-263.741 58.593 0 115.313-0.061 172.042 0.205 2.785 0.020 6.062 2.519 8.274 4.721 26.245 26.020 52.316 52.224 78.541 78.285 1.925 1.925 4.526 4.301 6.892 4.383 13.455 0.42 26.931 0.215 41.236 0.215-1.014-3.635-1.669-6.349-2.56-8.991-12.708-38.216-25.375-76.462-38.328-114.575-1.966-5.765-1.812-10.783 0.133-16.486 12.872-37.888 25.436-75.878 38.072-113.848 0.942-2.816 1.556-5.755 2.57-9.492-12.892 0-24.852-0.399-36.741 0.215-3.912 0.215-8.622 2.048-11.377 4.741-26.204 25.713-52.111 51.702-77.947 77.773-3.523 3.574-7.014 5.253-12.165 5.233-53.627-0.205-107.244-0.113-160.85-0.143-2.181 0-4.372-0.256-7.547-0.461 43.981-88.013 87.511-175.073 131.574-263.24-13.23 0-25.129 0.266-36.997-0.133-5.274-0.195-8.499 1.751-11.756 5.683-18.237 21.944-36.495 43.827-54.743 65.772h-37.274c-10.936 0-19.855 8.899-19.855 19.845 0 10.957 8.919 19.866 19.855 19.866h4.188c-14.561 17.48-29.133 34.939-43.704 52.419h-37.007c-10.947 0-19.876 8.899-19.876 19.845 0 10.967 8.929 19.886 19.876 19.886h3.799c-15.421 18.463-30.843 36.946-46.275 55.409-2.243 2.673-6.748 4.833-10.24 4.895-26.296 0.42-52.593-0.061-78.858 0.317-23.777 0.328-47.452 2.335-69.038 13.537-12.216 6.349-22.006 15.462-21.535 30.802 0.543 16.599 11.704 25.293 25.303 31.56z" />
<glyph unicode="&#xe60a;" d="M512 699.587c-97.096 0-176.108-79.002-176.108-176.108 0-94.321 162.458-314.348 169.37-323.666 1.587-2.12 4.086-3.4 6.738-3.4s5.151 1.28 6.728 3.4c6.922 9.318 169.38 229.345 169.38 323.666 0 97.106-79.012 176.108-176.108 176.108zM512 448.010c-41.615 0-75.479 33.853-75.479 75.469s33.864 75.479 75.479 75.479 75.479-33.864 75.479-75.479-33.864-75.469-75.479-75.469z" />
<glyph unicode="&#xe60b;" d="M768.522 656.241c0 0.195-0.010 0.369-0.010 0.553 0 0.041 0 0.082 0 0.133 0 0.307-0.010 0.594-0.010 0.891-0.010 0.102 0 0.225-0.010 0.338-0.205 8.305-2.458 10.557-10.865 10.762-0.645 0.020-1.341 0.031-2.068 0.031-7.987 0.010 0.276 0.010-7.711 0.010-9.206 0-18.401 0.010-27.597 0.010-9.114 0-18.207 0-27.31 0.010-2.857 0-5.734 0.236-8.264 0.358-0.481 1.341-0.819 1.843-0.819 2.335-0.031 4.024-0.041 8.038-0.061 12.052 0.010 9.421 0.010 18.545-0.010 27.648-0.020 3.277-0.225 5.714-0.829 7.516-1.075 3.615-3.697 4.628-9.677 4.813-0.072 0-0.143 0-0.215 0-0.317 0.010-0.625 0.010-0.952 0.020-0.133 0-0.246 0-0.379 0-0.123 0-0.215 0-0.348 0-0.512 0-1.024 0-1.526 0-2.877 0.020-5.755 0.031-8.622 0.031-6.185 0.020-12.349 0.020-18.524 0-0.225 0-0.451 0-0.686 0-4.966 0.041-8.858 0.072-11.909-0.061-9.523-0.225-11.008-2.314-11.028-12.974-0.020-13.517 0-27.034 0-41.165-72.12 0-142.899 0-214.18 0 0 14.121 0.010 27.648-0.010 41.165-0.010 10.66-1.495 12.749-11.018 12.974-3.052 0.143-6.932 0.113-11.919 0.061-0.215 0-0.451 0-0.676 0-6.175 0.020-12.339 0.010-18.514 0-2.877 0-5.755 0-8.622-0.031-0.522 0-1.024 0-1.536 0-0.123 0-0.225 0-0.348 0-0.133 0-0.256 0-0.379 0-0.328 0-0.635-0.010-0.952-0.020-0.072 0-0.154 0-0.215 0-5.98-0.184-8.612-1.198-9.677-4.813-0.604-1.802-0.809-4.239-0.819-7.516-0.041-9.114-0.041-18.227-0.031-27.648-0.010-4.014-0.031-8.028-0.061-12.052 0-0.492-0.328-0.993-0.819-2.335-2.519-0.113-5.386-0.358-8.253-0.358-9.114-0.010-18.196-0.010-27.3-0.010-9.206 0-18.412 0-27.597-0.010-7.997 0 0.276 0-7.721-0.010-0.727 0-1.423-0.010-2.079-0.031-8.387-0.205-10.66-2.458-10.854-10.762 0-0.113 0-0.225 0-0.338-0.010-0.297-0.020-0.584-0.020-0.891 0-0.041 0-0.092 0-0.133 0-0.195-0.010-0.358-0.010-0.553-0.020-173.486-0.020-298.179 0.010-471.665 0-10.516 1.792-12.38 12.288-12.38 86.825-0.020 157.389 0 244.224 0s157.389-0.020 244.224 0c10.486 0 12.298 1.864 12.298 12.38 0.020 173.486 0.020 298.179 0 471.665zM704.061 548.393c11.735-0.010 13.189-1.597 13.189-13.681 0-29.164 0-58.307 0-87.47h-126.362v101.151c37.724 0 75.448 0 113.172 0zM446.126 432.599h130.12v-99.226h-130.12v99.226zM431.493 333.373h-124.733c0 33.075 0 66.161 0 99.226h124.733v-99.226zM590.889 432.599h126.362c0-33.065 0-66.15 0-99.226h-126.362v99.226zM576.246 548.393v-101.151h-130.12v101.151c21.955 0 43.919 0 65.874 0 21.422 0 42.834 0 64.246 0zM319.939 548.393c37.181 0 74.363 0 111.555 0v-101.151h-124.733c0 29.164 0 58.307 0 87.47 0 12.083 1.444 13.66 13.179 13.681zM320.461 219.884c-12.943 0-13.701 0.799-13.701 13.957 0 28.303 0 56.596 0 84.9h124.733v-98.857c-37.018 0-74.025 0-111.032 0zM446.126 219.884v98.857h130.12v-98.857c-21.422 0-42.834 0-64.246 0-21.955 0-43.919 0-65.874 0zM703.529 219.884c-37.54 0-75.090 0-112.64 0v98.857h126.362c0-28.303 0-56.596 0-84.9 0-13.158-0.758-13.957-13.722-13.957z" />
<glyph unicode="&#xe60c;" d="M921.6 448c0-226.216-183.384-409.6-409.6-409.6s-409.6 183.384-409.6 409.6c0 226.216 183.384 409.6 409.6 409.6s409.6-183.384 409.6-409.6z" />
<glyph unicode="&#xe60d;" d="M769.761 370.063l-246.661 246.682c-5.898 5.847-16.292 5.878-22.231-0.020l-246.641-246.661c-6.144-6.134-6.144-16.128 0-22.252l27.372-27.372c5.796-5.816 16.435-5.816 22.262 0l208.138 208.138 208.138-208.138c2.959-2.98 6.922-4.608 11.131-4.608 4.198 0 8.161 1.628 11.121 4.608l27.372 27.372c6.144 6.113 6.144 16.118 0 22.252z" />
<glyph unicode="&#xe60e;" d="M921.6 448c0-226.216-183.384-409.6-409.6-409.6s-409.6 183.384-409.6 409.6c0 226.216 183.384 409.6 409.6 409.6s409.6-183.384 409.6-409.6z" />
<glyph unicode="&#xe60f;" d="M254.239 525.937l246.661-246.671c5.898-5.847 16.292-5.888 22.231 0.020l246.641 246.651c6.144 6.134 6.144 16.128 0 22.252l-27.372 27.372c-5.796 5.816-16.435 5.816-22.262 0l-208.138-208.128-208.138 208.128c-2.959 2.98-6.922 4.608-11.131 4.608-4.198 0-8.161-1.628-11.121-4.608l-27.372-27.372c-6.144-6.113-6.144-16.118 0-22.252z" />
<glyph unicode="&#xe610;" d="M602.47 668.938l-1.741 24.689c-9.37 52.255-46.234 83.702-85.228 84.808v0.041c-0.369 0-0.737-0.010-1.085-0.010-0.369 0-0.727 0.010-1.075 0.010v-0.041c-38.994-1.106-75.868-32.553-85.228-84.808l-1.772-24.689c-5.181-45.015 38.502-116.808 86.999-118.723v-0.092c0.348 0 0.707 0.041 1.075 0.041 0.348 0 0.717-0.041 1.085-0.041v0.092c48.486 1.915 92.201 73.708 86.968 118.723zM608.758 513.444h-193.843c-24.965 0-45.261-20.296-45.261-45.251v-13.885c0-27.433 4.065-163.83 83.313-195.154v-121.856c0-10.895 8.878-19.784 19.804-19.784h83.313c10.916 0 19.784 8.878 19.784 19.784v121.62c76.247 29.399 78.5 178.237 78.5 195.389v13.885c0 0.686-0.133 1.341-0.369 1.956-1.024 24.044-20.931 43.295-45.24 43.295z" />
<glyph unicode="&#xe611;" d="M603.197 633.467l-1.823 21.76c-9.697 46.039-47.882 73.748-88.259 74.732v0.031c-0.379 0-0.758-0.010-1.116-0.010-0.399 0-0.758 0.010-1.116 0.010v-0.031c-40.376-0.983-78.561-28.692-88.279-74.732l-1.823-21.76c-5.366-39.67 39.885-102.953 90.102-104.632v-0.072c0.358 0 0.717 0.041 1.116 0.041 0.358 0 0.737-0.041 1.116-0.041v0.072c50.227 1.69 95.488 64.963 90.081 104.632zM591.002 489.748h-157.993c-25.836 0-46.868-21.012-46.868-46.858v-14.367c0-37.038 7.096-125.594 71.905-158.505v-83.497c0-11.284 9.185-20.5 20.48-20.5h66.939c11.305 0 20.5 9.216 20.5 20.5v83.497c64.799 32.922 71.895 121.467 71.895 158.505v14.367c0 25.846-21.023 46.858-46.858 46.858z" />
<glyph unicode="&#xe612;" d="M597.238 593.92l-1.649 18.145c-8.96 38.41-44.145 61.532-81.388 62.331v0.041c-0.338 0-0.696-0.020-1.044-0.020s-0.676 0.020-1.024 0.020v-0.041c-37.233-0.799-72.438-23.921-81.388-62.331l-1.679-18.145c-4.946-33.106 36.782-85.893 83.067-87.265v-0.082c0.338 0 0.676 0.031 1.024 0.031s0.696-0.031 1.044-0.031v0.082c46.295 1.372 88.033 54.159 83.036 87.265zM673.147 468.982h-322.284c-13.507 0-24.474-10.045-24.474-22.477l0.297-33.669c0-13.558 11.991-17.848 18.985-20.306l42.906-10.885c4.127-1.157 9.093-3.43 9.185-7.639 0-0.256 0.031-0.543 0.072-0.819 0.276-4.383 4.25-60.273 26.767-131.574 4.004-12.534 13.804-20.040 26.214-20.040 13.097 0 24.054 9.124 25.313 20.408l12.196 48.712c0.082 0.256 0.133 0.522 0.164 0.778 2.345 7.281 5.581 8.745 10.281 8.745h26.46c4.669 0 7.885-1.444 10.271-8.745 0.051-0.256 0.092-0.522 0.174-0.778l12.063-47.923c1.413-12.083 12.36-21.197 25.457-21.197 12.39 0 22.2 7.506 26.204 20.060 22.016 69.704 26.296 124.682 26.726 131.441 0.072 0.307 0.113 0.635 0.113 0.932 0.102 4.209 5.048 6.482 9.032 7.578l43.622 11.121c6.441 2.294 18.442 6.584 18.442 20.101l0.287 33.772c-0.010 12.349-10.977 22.405-24.474 22.405z" />
<glyph unicode="&#xe613;" d="M559.657 675.492c-11.131-11.131-20.029-24.238-26.46-38.943l-6.912-20.716-0.358-1.27c-8.008-34.365-1.28-70.697 17.992-99.635l-98.847-98.847c-28.938 19.261-65.28 25.989-99.645 17.981l-20.695-6.769-1.27-0.492c-14.705-6.431-27.812-15.329-38.943-26.46-49.572-49.582-49.572-130.243 0.010-179.825s130.243-49.582 179.825 0c42.865 42.854 48.763 111.002 15.739 160.553l98.847 98.847c49.551-33.024 117.699-27.116 160.563 15.739 49.572 49.582 49.572 130.243-0.010 179.825-49.592 49.582-130.253 49.582-179.835 0.010z" />
<glyph unicode="&#xe614;" d="M343.163 629.801h338.043v-222.925h-338.043v222.925zM820.664 809.298h-617.329c-31.713 0-57.416-25.713-57.416-57.416v-607.744c0-31.724 25.713-57.436 57.416-57.436h617.318c31.713 0 57.416 25.723 57.416 57.436v607.744c0.010 31.703-25.702 57.416-57.405 57.416zM725.924 237.537c-6.113-8.141-16.282-12.687-28.621-12.81-7.741-0.072-16.005-0.113-26.061-0.113-0.020 0-0.020 0-0.041 0-6.789 0-13.609 0.020-20.419 0.041-6.82 0.020-13.619 0.031-20.398 0.031l-193.423 0.072c-31.355 0-68.516 0.020-106.22 0.092-5.98 0.010-11.366 0.686-16.026 2.028-15.78 4.526-25.733 21.965-21.75 38.052 3.338 13.486 6.646 25.754 10.107 37.427 5.55 18.76 28.529 37.079 48.189 38.42 6.267 0.42 12.042 0.635 17.603 0.635 24.218 0 48.404 0 72.602 0h34.98v23.665h-150.333c-17.285 0-25.006 7.741-25.006 25.078v257.372c0 15.585 8.284 23.839 23.9 23.839l374.18 0.010c15.944-0.010 24.044-8.141 24.044-24.197v-257.853c0-16.312-7.977-24.238-24.381-24.238-24.463 0-48.937 0-73.421 0h-77.517v-23.665c37.919 0.010 75.858 0.031 113.787 0.061h0.133c21.504 0 38.851-8.704 51.517-25.887 3.144-4.27 5.755-9.595 7.956-16.22 2.355-7.086 4.342-14.377 6.287-21.453 0.85-3.103 1.69-6.195 2.57-9.298 3.369-11.889 1.853-22.907-4.239-31.089z" />
<glyph unicode="&#xe615;" d="M805.366 545.812c-15.247 0-27.658-12.411-27.658-27.658 0-10.486-6.39-19.128-16.036-22.211-16.527 104.847-123.761 186.051-253.256 186.051-19.016 0-39.055-0.317-58.409-3.799-18.586 27.781-49.971 44.759-83.599 44.759-17.592 0-34.99-4.69-50.34-13.568-3.164-1.833-5.11-5.212-5.11-8.868s1.946-7.035 5.12-8.858c19.579-11.325 33.198-29.809 38.072-51.384-46.234-29.87-80.169-73.851-95.048-122.122h-57.876c-5.663 0-10.24-4.588-10.24-10.24v-143.36c0-5.663 4.577-10.24 10.24-10.24h87.030c24.986-38.851 62.956-67.543 110.592-84.49v-69.11c0-15.247 12.411-27.658 27.658-27.658s27.658 12.411 27.658 27.658v55.316c17.275-2.621 35.318-4.116 54.262-4.116 26.030 0 51.057 3.502 74.742 9.646v-60.846c0-15.247 12.411-27.658 27.658-27.658s27.658 12.411 27.658 27.658v81.459c66.55 33.393 118.262 102.861 122.501 153.17 36.547 8.090 72.059 45.507 72.059 82.811-0.010 15.247-12.421 27.658-27.679 27.658zM365.046 459.684c-26.593 0-48.241 21.627-48.241 48.23s21.647 48.241 48.241 48.241c26.604 0 48.241-21.637 48.241-48.241s-21.637-48.23-48.241-48.23z" />
<glyph unicode="&#xe616;" d="M780.247 522.158l6.124 18.412c0.594 1.782 1.085 3.584 1.659 5.663l6.205 22.108c0.492 1.751 0.143 3.625-0.963 5.079-1.096 1.444-2.806 2.304-4.618 2.304l-37.499 0.041c-6.779 0-11.981-0.061-16.855-0.215-10.383-0.328-17.234-7.127-19.825-9.687-9.339-9.298-18.657-18.606-27.976-27.914-11.1-11.090-22.139-22.108-33.208-33.085-29.030-0.133-78.592-0.154-108.063-0.154h-11.407l102.38 204.913c0.901 1.802 0.809 3.932-0.246 5.652-1.065 1.71-2.929 2.755-4.936 2.755h-24.873c-3.082 0-6.062 0.010-8.991 0.031l-8.479 0.020c-6.216 0-11.028-0.072-15.544-0.256-9.472-0.358-17.541-6.093-21.934-11.325-33.987-40.602-67.891-81.275-101.765-121.948l-30.28-36.342c-11.878-14.285-24.115-29-36.332-43.407-5.591-0.051-11.172-0.061-16.763-0.061l-19.651 0.010c-7.496 0-15.002-0.020-22.497-0.133-19.732-0.276-40.847-1.853-61.583-11.418-21.115-9.738-32.154-24.556-32.768-44.063-0.43-13.199 4.229-31.621 28.805-44.39 21.565-11.203 44.134-13.036 65.3-13.343 7.26-0.102 14.51-0.123 21.76-0.123l19.405 0.020c5.99 0 11.96-0.020 17.94-0.082 48.404-57.815 101.734-121.784 167.639-201.062 6.758-8.141 15.258-12.257 25.272-12.257 0.461 0 0.922 0 1.393 0.041 3.686 0.123 7.506 0.143 11.407 0.143l8.274-0.020c3.041-0.020 6.175-0.041 9.4-0.041h24.873c2.007 0 3.881 1.044 4.936 2.744 1.065 1.72 1.147 3.86 0.246 5.663l-102.4 204.913h22.6c25.457 0 71.393 0.010 96.85 0.092 18.268-18.422 39.66-39.895 61.215-61.051 5.857-5.745 14.438-9.421 22.948-9.861 4.055-0.215 8.438-0.307 13.814-0.307 2.785 0 5.581 0.020 8.428 0.051h1.126c2.447 0.020 4.925 0.051 7.455 0.051h20.019c1.802 0 3.502 0.84 4.598 2.273s1.475 3.277 1.014 5.028l-5.847 21.955c-0.543 2.202-1.085 4.26-1.761 6.257l-4.526 13.64c-8.55 25.764-17.418 52.419-26.307 78.592 7.526 22.149 14.93 44.38 22.159 66.079l2.652 8.018z" />
<glyph unicode="&#xe617;" d="M243.753 522.158l-6.124 18.412c-0.594 1.782-1.085 3.584-1.659 5.663l-6.205 22.108c-0.492 1.751-0.143 3.625 0.963 5.079 1.096 1.444 2.806 2.304 4.618 2.304l37.499 0.041c6.779 0 11.981-0.061 16.855-0.215 10.383-0.328 17.234-7.127 19.825-9.687 9.339-9.298 18.657-18.606 27.976-27.914 11.1-11.090 22.139-22.108 33.208-33.085 29.030-0.133 78.592-0.154 108.063-0.154h11.407l-102.38 204.913c-0.901 1.802-0.809 3.932 0.246 5.652 1.065 1.71 2.929 2.755 4.936 2.755h24.873c3.082 0 6.062 0.010 8.991 0.031l8.479 0.020c6.216 0 11.028-0.072 15.544-0.256 9.472-0.358 17.541-6.093 21.934-11.325 33.987-40.602 67.891-81.275 101.765-121.948l30.28-36.342c11.878-14.285 24.115-29 36.332-43.407 5.591-0.051 11.172-0.061 16.763-0.061l19.651 0.010c7.496 0 15.002-0.020 22.497-0.133 19.732-0.276 40.847-1.853 61.583-11.418 21.115-9.738 32.154-24.556 32.768-44.063 0.43-13.199-4.229-31.621-28.805-44.39-21.565-11.203-44.134-13.036-65.3-13.343-7.26-0.102-14.51-0.123-21.76-0.123l-19.405 0.020c-5.99 0-11.96-0.020-17.94-0.082-48.404-57.815-101.734-121.784-167.639-201.062-6.758-8.141-15.258-12.257-25.272-12.257-0.461 0-0.922 0-1.393 0.041-3.686 0.123-7.506 0.143-11.407 0.143l-8.274-0.020c-3.041-0.020-6.175-0.041-9.4-0.041h-24.873c-2.007 0-3.881 1.044-4.936 2.744-1.065 1.72-1.147 3.86-0.246 5.663l102.41 204.902h-22.6c-25.457 0-71.393 0.010-96.85 0.092-18.268-18.422-39.66-39.895-61.215-61.051-5.857-5.745-14.438-9.421-22.948-9.861-4.055-0.215-8.438-0.307-13.814-0.307-2.785 0-5.581 0.020-8.428 0.051h-1.126c-2.447 0.020-4.925 0.051-7.455 0.051h-20.019c-1.802 0-3.502 0.84-4.598 2.273s-1.475 3.277-1.014 5.028l5.847 21.955c0.543 2.202 1.085 4.26 1.761 6.257l4.526 13.64c8.55 25.764 17.418 52.419 26.307 78.592-7.526 22.149-14.93 44.38-22.159 66.079l-2.662 8.028z" />
<glyph unicode="&#xe618;" d="M726.385 715.971h-428.769c-29.563 0-53.596-24.044-53.596-53.586v-428.769c0-29.563 24.044-53.596 53.596-53.596h428.759c29.563 0 53.596 24.044 53.596 53.596v428.769c0.010 29.553-24.033 53.586-53.586 53.586zM512 242.565c-113.275 0-205.445 92.17-205.445 205.455s92.17 205.445 205.445 205.445 205.445-92.16 205.445-205.445c0-113.295-92.17-205.455-205.445-205.455zM586.691 413.348h-106.906v152.166c0 10.22 8.305 18.534 18.545 18.534 10.22 0 18.524-8.315 18.524-18.534v-115.118h69.847c10.199 0 18.524-8.305 18.524-18.524-0.010-10.22-8.335-18.524-18.534-18.524z" />
<glyph unicode="&#xe619;" d="M724.265 679.793c-17.818-6.431-35.912-9.595-55.081-7.834-20.685 1.894-39.352 9.738-58.153 17.326-77.865 31.437-150.702 21.996-219.075-26.122-0.963-0.686-1.772-1.393-2.488-2.13 0.020 6.277 0.020 24.166-0.113 30.444-0.215 12.237-9.4 23.726-20.787 26.491-20.623 5.018-37.089-8.315-37.11-30.116l-0.010-481.731c-0.020-10.189 4.454-18.207 12.605-23.828 9.308-6.441 19.661-7.004 29.665-1.812 10.609 5.509 15.739 14.715 15.729 26.839l-0.041 232.561c1.772 1.403 3.195 2.55 4.649 3.645l68.096 46.387-70.205-48.64c68.372 48.118 141.199 57.559 219.075 26.112 18.801-7.588 37.468-15.432 58.153-17.326 19.169-1.751 37.263 1.403 55.081 7.844 2.734 0.983 5.458 1.925 9.247 3.267 0 2.898 0 186.757 0 213.494 0 1.055 0 2.109 0 3.215 0 1.567 0 3.236 0 5.171-3.779-1.321-6.513-2.273-9.236-3.256z" />
<glyph unicode="&#xe61a;" d="M254.239 392.94l144.261-144.261c5.898-5.857 16.292-5.898 22.231 0.020l349.041 349.041c6.144 6.134 6.144 16.128 0 22.252l-27.372 27.372c-5.796 5.816-16.435 5.816-22.262 0l-310.538-310.528-105.738 105.728c-2.959 2.99-6.922 4.618-11.131 4.618-4.198 0-8.161-1.628-11.121-4.618l-27.372-27.372c-6.144-6.124-6.144-16.118 0-22.252z" />
<glyph unicode="&#xe61b;" d="M203.151 498.749c1.505-1.7 2.816-3.174 4.198-4.567 15.913-16.036 44.083-43.459 71.332-69.98 21.821-21.217 42.424-41.257 55.204-53.975 1.321-1.321 3.082-2.007 4.884-2.007 1.044 0 2.099 0.225 3.062 0.707l376.535 185.897c21.432 10.988 43.295 24.033 58.778 45.23 11.735 16.036 13.742 30.689 6.185 44.8-10.025 18.698-27.853 20.859-40.366 20.859-0.973 0-1.925-0.010-2.877-0.031-24.822-0.696-46.981-9.748-67.215-19.425-12.032-5.745-24.115-11.766-35.84-17.582-11.612-5.765-23.644-11.735-35.502-17.418-0.481-0.225-1.485-0.461-2.683-0.461-1.096 0-1.935 0.205-2.345 0.369-0.297 0.133-0.635 0.246-0.952 0.328l-213.555 56.658c-2.509 1.004-5.458 1.577-8.161 1.577-2.345 0-4.454-0.41-6.267-1.229-8.673-3.881-17.121-8.12-26.071-12.605-3.308-1.669-6.707-3.379-10.22-5.11-2.202-1.085-3.666-3.256-3.85-5.704-0.174-2.437 0.963-4.803 2.959-6.185l136.12-94.73-14.049-6.953c-32.809-16.271-46.326-22.979-88.412-43.561 0 0-0.020 0-0.061 0-0.061 0-0.154 0-0.256 0-1.044 0-2.591 0.307-4.147 0.829-19.702 6.554-39.363 13.169-59.023 19.794-15.636 5.263-31.263 10.527-46.899 15.749-2.437 0.819-5.315 1.649-8.202 1.649-1.853 0-3.553-0.348-5.048-1.034-9.288-4.25-18.258-8.735-27.771-13.486-3.205-1.608-6.461-3.226-9.769-4.864-1.935-0.963-3.328-2.775-3.727-4.915-0.399-2.13 0.215-4.321 1.669-5.939 0.86-0.993 1.628-1.864 2.345-2.683zM824.955 255.345c0.020 13.394-10.854 24.238-24.238 24.259h-561.306c-13.394 0-24.228-10.875-24.248-24.259l0.020-25.262c-0.010-13.404 10.844-24.238 24.238-24.259h561.306c13.425 0 24.238 10.875 24.259 24.259l-0.031 25.262z" />
<glyph unicode="&#xe61c;" d="M274.227 555.53l381.235-176.046c20.449-9.062 42.66-17.418 67.041-17.418 1.679 0 3.379 0.061 5.069 0.133 19.845 0.973 32.512 8.602 38.738 23.327 8.571 20.337-2.181 36.424-10.988 46.725-16.138 18.872-37.1 30.413-57.364 40.079-12.063 5.755-24.381 11.407-36.291 16.865-11.756 5.386-23.931 10.967-35.768 16.62-1.178 0.573-2.857 2.57-3.195 3.83-0.113 0.328-0.215 0.645-0.358 0.963l-90.163 201.718c-1.198 3.942-4.157 9.103-8.796 11.459-8.52 4.321-17.183 8.264-26.358 12.421-3.328 1.505-6.728 3.052-10.209 4.659-0.932 0.43-1.925 0.635-2.898 0.635-1.393 0-2.775-0.42-3.953-1.229-2.007-1.393-3.144-3.758-2.97-6.195l11.878-165.407-15.534 7.137c-32.379 14.899-46.285 21.299-88.31 40.888-0.010 0.061-1.024 1.29-2.007 3.942-7.24 19.282-14.387 38.595-21.535 57.897-5.786 15.606-11.571 31.222-17.388 46.817-1.618 4.332-3.686 8.632-7.875 10.701-9.134 4.557-18.258 8.724-27.945 13.117-3.256 1.495-6.564 2.99-9.902 4.526-0.932 0.43-1.925 0.635-2.898 0.635-1.137 0-2.253-0.276-3.267-0.819-1.915-1.034-3.226-2.888-3.574-5.038-0.205-1.27-0.399-2.427-0.594-3.502-0.369-2.243-0.686-4.178-0.911-6.124-2.478-22.497-6.113-61.768-9.626-99.748-2.785-30.188-5.407-58.706-7.281-76.564-0.307-2.949 1.311-5.755 3.994-7.004zM816.896 252.631c0 13.394-10.865 24.248-24.248 24.259h-561.306c-13.394 0-24.228-10.875-24.248-24.259l0.020-25.262c-0.010-13.394 10.844-24.238 24.238-24.248l561.316-0.010c13.414 0 24.238 10.875 24.259 24.259l-0.031 25.262z" />
<glyph unicode="&#xe61d;" d="M512 168.899l209.152 230.052c1.864 2.068 2.324 5.018 1.188 7.557-1.126 2.529-3.645 4.157-6.42 4.157h-407.839c-2.775 0-5.294-1.628-6.42-4.157-1.126-2.54-0.666-5.489 1.188-7.557l209.152-230.052zM512 727.101l-209.152-230.052c-1.864-2.068-2.324-5.018-1.188-7.557s3.645-4.168 6.42-4.168h407.839c2.775 0 5.294 1.628 6.42 4.168s0.666 5.489-1.188 7.557l-209.152 230.052z" />
<glyph unicode="&#xe61e;" d="M773.673 702.874c-2.171 4.844-7.004 7.967-12.298 7.967h-498.749c-5.304 0-10.127-3.133-12.298-7.977-2.161-4.844-1.27-10.527 2.273-14.49l220.129-245.535v-244.204c0-5.478 3.267-10.383 8.325-12.462 1.659-0.676 3.379-1.024 5.14-1.024 3.615 0 6.984 1.403 9.533 3.942l51.589 51.599c2.55 2.54 3.953 5.919 3.953 9.523v192.625l220.14 245.535c3.533 3.963 4.424 9.646 2.263 14.5z" />
<glyph unicode="&#xe61f;" d="M564.173 448l194.089 194.079c9.482 9.482 9.452 24.832 0 34.304l-17.869 17.869c-9.462 9.462-24.822 9.472-34.304 0l-194.089-194.089-194.089 194.089c-9.482 9.472-24.832 9.462-34.294 0l-17.879-17.869c-9.452-9.472-9.472-24.822 0-34.304l194.099-194.079-194.099-194.099c-9.472-9.462-9.452-24.822 0-34.284l17.879-17.859c9.462-9.482 24.812-9.482 34.294 0l194.089 194.079 194.089-194.079c9.482-9.482 24.842-9.482 34.304 0l17.869 17.859c9.452 9.462 9.482 24.822 0 34.284l-194.089 194.099z" />
<glyph unicode="&#xe620;" d="M781.722 226.765l-137.513 137.544 4.526 6.584c25.989 37.796 39.731 81.9 39.731 127.56 0 124.109-100.977 225.085-225.085 225.085-124.15 0-225.157-100.977-225.157-225.085 0-124.14 101.007-225.116 225.157-225.116 44.093 0 86.999 12.954 124.109 37.489l6.533 4.332 138.045-137.994c3.195-3.185 6.41-4.7 9.851-4.7 3.482 0 6.697 1.516 9.923 4.721l29.829 29.86c2.652 2.642 4.106 6.154 4.106 9.902 0 3.758-1.454 7.26-4.055 9.82zM463.38 656.169c86.948 0 157.696-70.758 157.696-157.716 0-86.968-70.748-157.737-157.696-157.737-86.999 0-157.778 70.769-157.778 157.737 0 86.958 70.779 157.716 157.778 157.716z" />
<glyph unicode="&#xe621;" d="M512 695.327c-136.376 0-247.327-110.95-247.327-247.327s110.95-247.327 247.327-247.327c136.376 0 247.316 110.95 247.316 247.327s-110.94 247.327-247.316 247.327zM590.377 419.461h-106.916v152.166c0 10.22 8.305 18.534 18.545 18.534 10.22 0 18.514-8.315 18.514-18.534v-115.118h69.857c10.199 0 18.524-8.305 18.524-18.524 0-10.23-8.325-18.524-18.524-18.524z" />
<glyph unicode="&#xe622;" d="M774.482 507.29c-0.072 0.195-0.051 0.379-0.113 0.553-1.126 3.584-4.096 6.277-7.772 7.086l-162.591 35.471-82.893 142.838c-1.884 3.256-5.335 5.243-9.093 5.243s-7.229-1.987-9.103-5.243l-82.872-142.838-162.57-35.471c-3.686-0.809-6.646-3.502-7.793-7.086-1.157-3.584-0.287-7.516 2.253-10.271l111.268-122.122-17.603-166.298c-0.369-3.779 1.27-7.444 4.332-9.646 0.102-0.092 0.225-0.133 0.358-0.215 3.021-1.976 6.84-2.345 10.138-0.84l151.603 68.884 151.583-68.884c1.382-0.635 2.888-0.922 4.352-0.922 0.102 0 0.215 0 0.307 0 2.089 0.061 4.127 0.707 5.857 1.966 0.041 0.020 0.082 0.092 0.123 0.113 2.97 2.222 4.577 5.827 4.178 9.544l-17.572 166.298 111.258 122.112c2.406 2.632 3.246 6.308 2.365 9.728z" />
<glyph unicode="&#xe623;" d="M674.703 397.414c-62.546 0-113.439-50.883-113.439-113.428 0-62.536 50.893-113.418 113.439-113.418 62.536 0 113.428 50.883 113.428 113.418 0 62.546-50.893 113.428-113.428 113.428zM725.944 267.244h-64.84v80.087c0 5.837 4.751 10.588 10.588 10.588 5.827 0 10.588-4.751 10.588-10.588v-58.89h43.663c5.827 0 10.588-4.762 10.588-10.598s-4.762-10.598-10.588-10.598z" />
<glyph unicode="&#xe624;" d="M521.247 256.399c-1.597 8.96-2.427 18.166-2.427 27.576 0 85.965 69.929 155.894 155.884 155.894 35.666 0 68.567-12.052 94.863-32.287 10.076 2.028 19.927 5.181 29.389 10.086 12.278 6.38 22.118 15.514 21.617 30.915-0.543 16.65-11.766 25.385-25.416 31.672-20.879 9.626-43.295 11.438-65.812 11.756-26.388 0.379-52.808-0.072-79.186 0.287-3.297 0.051-7.537 2.058-9.677 4.567-15.77 18.534-31.334 37.233-46.899 55.941h3.953c10.998 0 19.948 8.95 19.948 19.948 0 11.008-8.95 19.958-19.948 19.958h-37.202c-14.623 17.541-29.225 35.082-43.868 52.613h4.209c10.998 0 19.958 8.96 19.958 19.958 0 11.008-8.96 19.958-19.958 19.958h-37.499c-18.586 22.262-37.151 44.524-55.767 66.765-1.915 2.294-5.315 4.577-8.1 4.69-12.79 0.492-25.59 0.215-39.967 0.215 44.38-88.812 88.105-176.312 132.332-264.806-58.839 0-115.804-0.061-172.759 0.215-2.796 0.010-6.083 2.54-8.305 4.731-26.358 26.122-52.541 52.429-78.858 78.592-1.925 1.915-4.536 4.332-6.922 4.413-13.507 0.42-27.044 0.205-41.411 0.205 1.034-3.645 1.679-6.38 2.56-9.032 12.78-38.359 25.477-76.759 38.502-115.046 1.966-5.786 1.823-10.824-0.133-16.558-12.913-38.042-25.549-76.186-38.226-114.309-0.942-2.836-1.567-5.786-2.58-9.533 12.964 0 24.945-0.389 36.905 0.215 3.922 0.205 8.653 2.038 11.428 4.751 26.286 25.815 52.306 51.907 78.254 78.090 3.553 3.584 7.055 5.263 12.237 5.253 53.832-0.195 107.684-0.123 161.505-0.143 2.202 0 4.393-0.256 7.567-0.471-44.155-88.361-87.859-175.78-132.106-264.315 13.302 0 25.242 0.276 37.161-0.143 5.294-0.184 8.53 1.772 11.817 5.724 18.299 22.006 36.639 44.012 54.958 66.017h37.407c5.294 0 10.086 2.079 13.66 5.448-5.233 10.824-9.257 22.333-11.899 34.355-0.573 0.051-1.167 0.092-1.761 0.092z" />
<glyph unicode="&#xe625;" d="M779.663 421.489c-1.935 5.745-2.099 10.762-0.133 16.548 13.015 38.298 25.723 76.687 38.492 115.057 0.891 2.652 1.536 5.376 2.56 9.021-14.346 0-27.894 0.215-41.411-0.205-2.365-0.072-4.977-2.488-6.912-4.403-26.327-26.163-52.5-52.48-78.868-78.592-2.212-2.202-5.489-4.721-8.305-4.731-56.955-0.276-113.92-0.215-172.749-0.215 44.216 88.494 87.951 175.995 132.332 264.806-14.387 0-27.177 0.276-39.967-0.215-2.785-0.113-6.195-2.396-8.1-4.69-18.616-22.241-37.202-44.503-55.757-66.765h-37.519c-10.988 0-19.937-8.95-19.937-19.948s8.95-19.948 19.937-19.948h4.209c-14.623-17.541-29.235-35.082-43.848-52.634h-37.192c-10.998 0-19.958-8.95-19.958-19.948s8.96-19.958 19.958-19.958h3.953c-15.565-18.708-31.14-37.407-46.899-55.941-2.13-2.519-6.39-4.506-9.667-4.557-26.399-0.369-52.797 0.082-79.186-0.297-22.518-0.317-44.954-2.13-65.823-11.756-13.66-6.287-24.893-15.022-25.416-31.672-0.492-15.411 9.339-24.535 21.627-30.915 21.647-11.274 45.425-13.271 69.294-13.609 26.399-0.369 52.797 0.102 79.206-0.307 3.502-0.061 8.008-2.222 10.271-4.905 15.514-18.545 30.966-37.1 46.469-55.654h-3.82c-10.998 0-19.958-8.95-19.958-19.948s8.96-19.958 19.958-19.958h27.351c7.219 78.868 73.728 140.841 154.44 140.841 68.844 0 127.345-45.087 147.538-107.274 5.437-5.376 10.875-10.742 16.333-16.097 2.775-2.724 7.496-4.557 11.407-4.762 11.96-0.604 23.951-0.215 36.905-0.215-1.014 3.758-1.649 6.697-2.58 9.544-12.687 38.113-25.324 76.257-38.236 114.299z" />
<glyph unicode="&#xe626;" d="M608.276 383.98c-62.536 0-113.439-50.883-113.439-113.418s50.903-113.418 113.439-113.418c62.546 0 113.428 50.883 113.428 113.418s-50.872 113.418-113.428 113.418zM659.517 253.819h-64.829v80.077c0 5.837 4.731 10.598 10.588 10.598 5.827 0 10.588-4.762 10.588-10.598v-58.89h43.653c5.847 0 10.588-4.751 10.588-10.588 0-5.847-4.731-10.598-10.588-10.598z" />
<glyph unicode="&#xe627;" d="M745.144 463.196c-0.471 14.459-12.534 20.009-16.486 21.842-11.069 5.1-22.487 5.939-33.188 6.103-4.178 0.061-8.366 0.072-12.564 0.072l-11.008-0.010c-3.635 0-7.291 0.010-10.916 0.051-7.168 8.438-14.356 17.101-21.33 25.477l-16.978 20.367c-18.985 22.794-37.97 45.578-57.016 68.332-2.007 2.396-5.683 5.028-9.933 5.181-2.488 0.113-5.13 0.154-8.571 0.154-1.556 0-3.123-0.010-4.731-0.020-1.638-0.010-3.328-0.020-5.059-0.020h-13.937l59.73-119.542-11.663-0.010c-16.957 0-33.71 0.020-50.422 0.102-6.533 6.461-13.025 12.954-19.517 19.436-5.243 5.233-10.486 10.455-15.708 15.657-1.311 1.3-4.372 4.362-8.94 4.506-2.693 0.082-5.581 0.123-9.329 0.123l-21.023-0.031 3.502-12.411c0.287-1.096 0.563-2.058 0.87-3l3.43-10.322c4.547-13.66 9.236-27.791 13.967-41.667 0.215-0.655 0.256-0.973-0.061-1.925-4.977-14.674-9.953-29.594-14.746-44.032l-2.529-7.639c-0.348-1.044-0.635-2.109-0.932-3.318l-3.277-12.298h11.233c1.638 0 3.236-0.020 4.833-0.031 1.577-0.020 3.154-0.031 4.69-0.031 2.949 0 5.356 0.051 7.578 0.174 3.932 0.205 8.049 1.966 10.742 4.598 12.851 12.616 25.559 25.385 35.226 35.154 14.725-0.051 29.44-0.061 44.155-0.061h17.92l-59.74-119.532h13.937c1.792 0 3.553 0.010 5.243 0.020 3.891 0.020 7.557 0.051 11.233-0.082 0.215 0 0.399 0 0.604 0h0.010c4.659 0 8.468 1.864 11.653 5.683 36.372 43.745 66.56 79.954 94.925 113.838 3.85 0.051 7.721 0.061 11.581 0.061l10.875-0.010c4.055 0 8.11 0.010 12.165 0.072 11.459 0.174 23.644 1.137 35.144 7.117 12.227 6.369 14.551 15.411 14.356 21.873zM554.424 323.195v0 0zM683.346 249.6c-0.614-11.561-12.114-22.6-25.569-24.166l-320.696-0.123c-13.507 1.69-25.006 12.728-25.62 24.289l0.236 435.855c0.594 11.571 12.114 22.61 25.651 24.361l320.184-0.051c13.507-1.761 24.965-12.79 25.569-24.371l0.102-115.2h32.522v167.731c-2.417 25.395-27.709 53.033-56.084 59.269h-324.721c-28.314-6.236-53.658-33.874-56.074-59.269v-579.871c2.406-25.324 27.761-52.982 56.074-59.259h324.721c28.375 6.277 53.658 33.935 56.084 59.259v195.113h-32.451l0.072-103.567zM497.275 133.642c-15.524 0-28.232 12.165-28.416 26.542-0.184 14.612 12.595 25.897 28.416 25.958 15.944-0.061 28.692-11.346 28.488-25.958-0.123-14.377-12.861-26.542-28.488-26.542z" />
<glyph unicode="&#xe628;" d="M522.609 290.396c-1.167-0.717-2.365-1.321-3.625-1.802-0.553-0.195-1.065-0.44-1.597-0.584-1.71-0.481-3.461-0.768-5.233-0.788-0.031 0-0.082-0.010-0.123-0.010 0 0 0 0-0.020 0h-0.020c-0.041 0-0.092 0.010-0.123 0.010-1.792 0.020-3.533 0.307-5.233 0.788-0.553 0.143-1.065 0.389-1.597 0.584-1.26 0.481-2.468 1.065-3.635 1.802-0.287 0.195-0.625 0.246-0.932 0.461l-246.477 172.882v-247.951c0-26.092 21.156-47.237 47.247-47.237h421.54c26.092 0 47.247 21.146 47.247 47.237v247.951l-246.477-172.882c-0.307-0.195-0.655-0.266-0.942-0.461zM762.102 507.269c-8.458 12.708-22.897 21.094-39.332 21.094h-421.54c-16.415 0-30.863-8.387-39.311-21.094l250.081-175.452 250.102 175.452zM511.437 753.449c28.129-14.111 42.465-30.085 50.022-41.38l48.302 25.17c1.188 0.625 2.939 0.031 4.198-0.451 2.744-1.106 6.011-2.56 7.67-5.796 1.741-3.369 1.208-7.342 0.328-10.097l-42.342-131.133c-1.198-3.85-3.963-6.994-7.782-8.622-3.512-1.475-7.465-1.71-11.233-0.532l-130.929 39.066c-2.57 0.819-6.144 2.284-8.018 5.837-1.772 3.441-1.464 7.977-0.881 10.639 0.338 1.3 0.85 3.072 2.058 3.697l44.554 23.204c-36.628 64.522-116.142 69.386-116.931 69.427-1.69 0.061-3.031 0.696-3.789 2.14-0.195 0.379-0.225 0.594-0.328 0.963-0.451 2.048 0.133 4.905 1.987 5.919 75.981 39.578 130.744 28.18 163.113 11.95z" />
<glyph unicode="&#xe629;" d="M672.164 802.621c-3.512 3.482-9.175 8.97-15.729 8.97h-0.143c-6.298 0-11.11-5.55-14.93-8.899-1.761-1.577-4.045-5.396-4.014-7.7l1.147-94.413c-23.347-2.836-59.29-12.554-103.158-44.984-50.391-37.396-110.858-113.183-109.117-261.622 0.123-3.697 4.106-6.769 7.639-7.68 0.635-0.143 1.004-0.143 1.731-0.143 2.806 0.051 4.864 1.802 6.298 4.393 0.635 1.178 70.4 120.75 198.851 126.925l1.065-86.262c0-2.355 2.335-2.98 4.086-4.526 3.625-2.949 10.353-3.82 17.039-3.82 0.031 0 0.072 0 0.102 0 6.994 0 12.032 1.464 15.299 4.813l162.867 168.96c4.751 4.895 7.475 11.418 7.956 17.981 0.451 7.209-2.253 14.285-7.281 19.18l-169.708 168.827z" />
<glyph unicode="&#xe62a;" d="M723.825 229.489c0-12.329-10.035-22.354-22.374-22.354h-381.573c-12.329 0-22.374 10.025-22.374 22.354v354.458c0 12.339 10.035 22.364 22.374 22.364h89.518c8.509 15.002 17.633 28.682 27.197 40.796h-116.716c-34.836 0-63.171-28.334-63.171-63.16v-354.458c0-34.826 28.334-63.16 63.171-63.16h381.573c34.836 0 63.171 28.334 63.171 63.16v196.536l-40.796-43.162v-153.375z" />
<glyph unicode="&#xe62b;" d="M775.936 630.2c0.010 13.384-10.854 24.248-24.248 24.259h-479.386c-13.394 0-24.228-10.875-24.248-24.259l0.020-25.272c-0.010-13.384 10.844-24.238 24.238-24.248h479.386c13.414 0 24.238 10.875 24.259 24.259l-0.020 25.262zM775.936 453.581c0.010 13.384-10.854 24.248-24.248 24.259h-479.386c-13.394 0-24.228-10.875-24.248-24.259l0.020-25.272c-0.010-13.394 10.844-24.238 24.238-24.248h479.386c13.414 0 24.238 10.875 24.259 24.248l-0.020 25.272zM775.936 277.402c0.010 13.384-10.854 24.238-24.248 24.259h-479.386c-13.394-0.010-24.228-10.875-24.248-24.259l0.020-25.272c-0.010-13.394 10.844-24.238 24.238-24.248h479.386c13.414 0 24.238 10.875 24.259 24.248l-0.020 25.272z" />
<glyph unicode="&#xe62c;" d="M532.572 797.204c-183.767 0-332.739-148.982-332.739-332.749 0-91.208 48.292-172.718 48.292-172.718l-58.184-177.203 182.333 58.245c0 0 67.676-41.093 160.297-41.093 183.767 0 332.749 148.982 332.749 332.749 0 183.788-148.982 332.769-332.749 332.769zM532.572 184.955c-85.545 0-154.030 46.254-154.030 46.254l-105.114-34.314 34.109 101.765c0 0-54.467 75.397-54.467 165.806 0 154.368 125.143 279.501 279.501 279.501 154.378 0 279.532-125.133 279.532-279.501s-125.153-279.511-279.532-279.511zM405.873 609.321c0 0 8.991 5.704 13.691 5.704 4.659 0 26.214 0 26.214 0s7.025-1.229 10.25-8.55c3.215-7.322 25.334-59.259 26.972-63.252 1.649-4.004 5.929-13.916-0.952-22.794s-21.279-25.457-21.279-25.457-5.693-5.13-0.758-13.302c4.946-8.161 22.303-35.113 45.025-55.47 22.712-20.357 50.534-35.328 64.389-39.895 13.865-4.557 16.896 1.516 22.241 8.356 5.325 6.83 21.832 27.73 21.832 27.73s5.734 8.346 16.906 3.205c11.233-5.12 65.741-31.519 65.741-31.519s6.636-1.137 7.025-8.54c0.379-7.424 4.936-29.594-14.797-50.924-19.763-21.32-61.778-31.201-81.705-25.641-19.876 5.571-85.678 22.784-128.584 62.802-42.906 39.997-77.64 82.125-91.863 113.172-14.213 31.048-13.435 49.48-12.616 58.163 0.768 8.714 5.315 48.957 32.266 66.212z" />
<glyph unicode="&#xe62d;" d="M523.377 385.741c-1.249-0.778-2.55-1.423-3.901-1.935-0.584-0.195-1.126-0.461-1.71-0.614-1.843-0.512-3.717-0.829-5.622-0.85-0.041 0-0.092-0.020-0.133-0.020 0 0 0 0-0.020 0h-0.020c-0.051 0-0.092 0.020-0.133 0.020-1.915 0.020-3.779 0.338-5.622 0.85-0.584 0.154-1.126 0.42-1.72 0.614-1.341 0.522-2.642 1.157-3.891 1.935-0.307 0.205-0.666 0.256-0.993 0.481l-264.366 185.426v-265.953c0-27.976 22.702-50.657 50.688-50.657h452.137c27.986 0 50.688 22.682 50.688 50.657v265.953l-264.376-185.426c-0.328-0.225-0.686-0.287-1.004-0.481zM780.257 618.342c-9.093 13.629-24.556 22.62-42.189 22.62h-452.137c-17.613 0-33.096-8.991-42.168-22.62l268.237-188.16 268.257 188.16z" />
<glyph unicode="&#xe62e;" d="M896.737 860.744h-376.31c-19.343 0-37.632-18.289-37.632-37.632v-175.606c0-19.354 18.289-37.632 37.632-37.632h50.186c6.932 0 12.544-5.632 12.544-12.554v-70.41l80.65 79.35c2.345 2.324 5.499 3.615 8.796 3.615h224.143c19.343 0 37.632 18.278 37.632 37.632v175.606c-0.010 19.343-18.299 37.632-37.642 37.632zM630.61 715.131c-8.745 0-15.831 7.076-15.831 15.8 0 8.735 7.076 15.821 15.831 15.821 8.735 0 15.8-7.086 15.8-15.821 0-8.724-7.066-15.8-15.8-15.8zM709.683 715.131c-8.745 0-15.821 7.076-15.821 15.8 0 8.735 7.076 15.821 15.821 15.821s15.811-7.086 15.811-15.821c0-8.724-7.076-15.8-15.811-15.8zM788.746 715.131c-8.745 0-15.8 7.076-15.8 15.8 0 8.735 7.055 15.821 15.8 15.821s15.821-7.086 15.821-15.821c0-8.724-7.076-15.8-15.821-15.8zM698.624 225.976c-1.178-11.182-12.329-21.668-25.405-23.183l-320.573-0.133c-13.496 1.7-24.996 12.749-25.61 24.289l0.256 435.681c0.604 11.551 12.104 22.579 25.62 24.34l77.527-0.031v87.378h-79.944c-28.303-6.216-53.627-33.864-56.074-59.249v-579.625c2.437-25.324 27.771-52.961 56.074-59.238h324.567c28.375 6.277 53.617 33.915 56.074 59.238v423.916h-32.522v-333.384zM512.778 111.043c-15.534 0-28.252 12.165-28.416 26.542-0.184 14.582 12.605 25.876 28.416 25.938 15.944-0.061 28.672-11.356 28.477-25.938-0.123-14.387-12.831-26.542-28.477-26.542z" />
<glyph unicode="&#xe62f;" d="M548.895 411.116l243.763-0.020c13.414 0 24.238 10.875 24.259 24.259l-0.010 25.272c0.010 13.384-10.854 24.238-24.248 24.248l-243.763-0.010v243.784c-0.010 13.404-10.875 24.248-24.248 24.248l-25.283 0.010c-13.373-0.010-24.248-10.854-24.248-24.259l0.010-243.763h-243.784c-13.394-0.010-24.228-10.875-24.248-24.248l0.020-25.272c-0.010-13.384 10.844-24.238 24.238-24.238h243.773v-243.763c0-13.404 10.875-24.259 24.248-24.259h25.262c13.394 0 24.259 10.844 24.259 24.238v243.773z" />
<glyph unicode="&#xe630;" d="M816.896 460.636c0.010 13.384-10.854 24.238-24.248 24.248h-561.306c-13.394-0.010-24.228-10.875-24.248-24.248l0.020-25.283c-0.010-13.384 10.844-24.238 24.238-24.238l561.306-0.010c13.414 0 24.238 10.875 24.259 24.248l-0.020 25.283z" />
<glyph unicode="&#xe631;" d="M512 768.195c-176.835 0-320.195-143.34-320.195-320.205 0-176.835 143.36-320.195 320.195-320.195 176.824 0 320.195 143.38 320.195 320.195 0 176.865-143.37 320.205-320.195 320.205zM462.479 625.121c0.184 4.874 4.127 8.776 9.032 8.776h80.957c4.905 0 8.847-3.912 9.052-8.776h0.133l-28.396-228.147c-1.372-2.437-3.891-4.157-6.892-4.157h-28.744c-3 0-5.519 1.72-6.892 4.157l-28.396 228.147h0.143zM512 250.122c-26.778 0-48.497 21.699-48.497 48.476 0 26.798 21.719 48.497 48.497 48.497s48.486-21.699 48.486-48.497c0-26.778-21.709-48.476-48.486-48.476z" />
<glyph unicode="&#xe632;" d="M767.263 655.79c0 0.031 0 0.051 0 0.123 0 0.307 0 0.594 0 0.86-0.041 0.113 0 0.236-0.041 0.358-0.164 8.253-2.417 10.506-10.783 10.691-0.655 0.020-1.331 0.041-2.058 0.041-7.956 0.020 0.297 0.020-7.7 0.020-9.134 0-18.268 0-27.433 0-9.073 0-18.135 0-27.187 0-2.836 0.031-5.683 0.256-8.192 0.389-0.512 1.321-0.84 1.812-0.84 2.314-0.031 3.994-0.031 7.987-0.051 12.001 0 9.37 0.020 18.432-0.031 27.484-0.020 3.277-0.225 5.704-0.799 7.516-1.065 3.553-3.686 4.598-9.626 4.762-0.072 0-0.164 0-0.256 0-0.297 0-0.584 0.010-0.911 0.031-0.113 0-0.256 0-0.379 0-0.102 0-0.225 0-0.369 0-0.502 0-0.993 0-1.495 0-2.836 0.031-5.724 0.031-8.602 0.031-6.124 0.020-12.268 0.020-18.401 0-0.215 0-0.481 0-0.666 0-4.977 0.061-8.847 0.072-11.889-0.072-9.462-0.205-10.936-2.284-10.957-12.902-0.041-13.435-0.041-26.9-0.041-40.96-71.731 0-142.182 0-213.115 0 0 14.070 0 27.525-0.010 40.96 0 10.629-1.495 12.708-10.967 12.902-3.021 0.143-6.892 0.133-11.858 0.072-0.215 0-0.43 0-0.666 0-6.164 0.020-12.268 0.020-18.422 0-2.867 0-5.745 0-8.602-0.031-0.492 0-1.024 0-1.505 0-0.154 0-0.236 0-0.358 0-0.154 0-0.246 0-0.389 0-0.338-0.020-0.635-0.031-0.922-0.031-0.072 0-0.154 0-0.215 0-5.939-0.164-8.561-1.198-9.615-4.762-0.635-1.812-0.829-4.219-0.829-7.516-0.041-9.052-0.041-18.115-0.020-27.484-0.020-4.014-0.031-8.008-0.051-12.001 0-0.502-0.348-0.993-0.829-2.314-2.519-0.133-5.345-0.358-8.202-0.389-9.083 0-18.125 0-27.197 0-9.124 0-18.299 0-27.443 0-7.967 0 0.266 0-7.66-0.020-0.758 0-1.423-0.020-2.089-0.041-8.346-0.184-10.619-2.437-10.803-10.691-0.010-0.123 0-0.246-0.010-0.358 0-0.276 0-0.553 0-0.86 0-0.072 0-0.092 0-0.123 0-0.215-0.020-0.369-0.020-0.563-0.031-172.646-0.031-296.724 0-469.371 0-10.455 1.812-12.329 12.227-12.329 86.405 0 156.621 0 243.036 0s156.631 0 243.046 0c10.445 0 12.216 1.884 12.237 12.329 0.031 172.646 0.031 296.724 0 469.371-0.020 0.195-0.041 0.358-0.041 0.563zM321.393 220.989c-12.913 0.020-13.65 0.778-13.65 13.875 0 99.799 0 199.598 0 299.418 0 12.042 1.444 13.588 13.128 13.609 63.734 0.020 127.416 0 191.119 0 63.693 0 127.437 0.020 191.15 0 11.663-0.020 13.128-1.567 13.128-13.609 0-99.82 0-199.619 0-299.418 0-13.097-0.748-13.865-13.65-13.875-63.539 0-127.068 0-190.628 0-63.539 0-127.048 0-190.597 0zM635.023 380.867c-0.379 11.561-10.004 15.995-13.148 17.439-8.868 4.055-17.992 4.762-26.532 4.864-3.348 0.061-6.697 0.082-10.056 0.082l-8.776-0.020c-2.908 0-5.806 0.020-8.714 0.061-5.745 6.728-11.479 13.66-17.050 20.337l-13.558 16.271c-15.176 18.207-30.331 36.424-45.548 54.579-1.608 1.925-4.547 4.024-7.936 4.147-2.007 0.072-4.096 0.102-6.851 0.102-1.219 0-2.509 0-3.779 0-1.331 0-2.693-0.010-4.055-0.010h-11.141l47.708-95.508h-9.308c-13.537 0-26.911 0.020-40.274 0.082-5.202 5.161-10.424 10.383-15.596 15.544-4.157 4.178-8.346 8.346-12.544 12.503-1.044 1.044-3.492 3.482-7.148 3.604-2.14 0.082-4.444 0.113-7.434 0.113l-16.804-0.031 2.765-9.912c0.256-0.891 0.481-1.649 0.717-2.406l2.744-8.243c3.645-10.906 7.404-22.2 11.162-33.3 0.174-0.532 0.215-0.758-0.041-1.516-3.973-11.735-7.946-23.644-11.776-35.185l-2.048-6.103c-0.256-0.84-0.471-1.679-0.748-2.673l-2.591-9.789h8.95c1.331 0 2.601-0.041 3.881-0.041 1.249-0.020 2.529-0.041 3.738-0.041 2.355 0 4.28 0.061 6.052 0.133 3.144 0.195 6.472 1.577 8.591 3.676 10.26 10.086 20.429 20.285 28.14 28.068 11.756-0.010 23.521-0.031 35.277-0.031h14.295l-47.708-95.488h11.141c1.413 0 2.836 0 4.168 0.020 3.133 0.020 6.072 0.061 8.991-0.061 0.164 0 0.317-0.020 0.471-0.020v0c3.727 0 6.779 1.495 9.318 4.557 29.041 34.949 53.166 63.877 75.837 90.921 3.072 0.061 6.164 0.072 9.247 0.072l8.673-0.010c3.246 0 6.502 0.010 9.718 0.041 9.155 0.143 18.872 0.932 28.078 5.704 9.8 5.089 11.674 12.298 11.5 17.469zM482.642 269.015v0 0 0z" />
<glyph unicode="&#xe633;" d="M413.583 190.239l246.671 246.661c5.847 5.898 5.888 16.292-0.020 22.231l-246.651 246.641c-6.134 6.144-16.128 6.144-22.252 0l-27.372-27.372c-5.816-5.796-5.816-16.435 0-22.262l208.128-208.138-208.128-208.138c-2.98-2.959-4.608-6.922-4.608-11.131 0-4.198 1.628-8.161 4.608-11.121l27.372-27.372c6.113-6.144 16.118-6.144 22.252 0z" />
<glyph unicode="&#xe634;" d="M512 31.007c-229.929 0-416.993 187.064-416.993 416.993s187.064 416.993 416.993 416.993 416.993-187.064 416.993-416.993-187.064-416.993-416.993-416.993zM512 822.907c-206.725 0-374.897-168.182-374.897-374.907s168.182-374.907 374.897-374.907 374.897 168.182 374.897 374.907c0 206.725-168.172 374.907-374.897 374.907zM556.831 638.013c0-30.132-24.427-54.559-54.559-54.559s-54.559 24.427-54.559 54.559c0 30.132 24.427 54.559 54.559 54.559s54.559-24.427 54.559-54.559zM611.441 267.448c0 12.298-9.964 22.282-22.282 22.282h-43.264v218.235c0 12.298-9.994 22.262-22.282 22.282h-2.58c-0.010 0-0.020 0-0.020 0h-56.965c-12.319 0-22.282-9.984-22.292-22.282l0.010-13.496c-0.010-12.298 9.964-22.282 22.282-22.282h14.060v-182.456h-43.264c-12.319 0-22.282-9.984-22.292-22.282l0.010-13.496c-0.010-12.288 9.964-22.282 22.282-22.282h154.317c12.308 0 22.272 9.994 22.282 22.282v13.496z" />
<glyph unicode="&#xe635;" d="M921.6 448c0-226.216-183.384-409.6-409.6-409.6s-409.6 183.384-409.6 409.6c0 226.216 183.384 409.6 409.6 409.6s409.6-183.384 409.6-409.6z" />
<glyph unicode="&#xe636;" d="M321.894 269.302l43.018 98.222 70.042-70.042-98.519-42.721z" />
<glyph unicode="&#xe637;" d="M458.998 307.64l14.428 7.895 251.822 251.812-90.481 90.47-251.802-251.802-7.895-14.438z" />
<glyph unicode="&#xe638;" d="M863.498 499.948c-25.221 171.356-173.24 303.329-351.498 303.329-195.891 0-355.267-159.375-355.267-355.277s159.365-355.287 355.267-355.287v21.565c-184.013 0-333.711 149.699-333.711 333.722 0 184.013 149.699 333.711 333.711 333.711 170.711 0 311.89-128.84 331.418-294.38z" />
<glyph unicode="&#xe639;" d="M863.304 333.117c3.021 6.799 3.523 14.039 3.564 21.34 0.020 8.54-0.236 17.060-0.205 25.6-0.020 1.075 0.625 2.458 1.444 3.144 5.919 5.181 11.919 10.281 17.9 15.401l0.020-1.28c0.041-3.564 2.98-6.441 6.543-6.38 3.543 0.020 6.42 2.959 6.359 6.523l-0.123 12.022c5.622 4.803 11.244 9.605 16.855 14.377l0.020-1.362c0.020-3.543 2.959-6.4 6.523-6.38 3.564 0.061 6.4 2.98 6.38 6.543l-0.143 12.124c7.117 6.103 14.264 12.186 21.381 18.289 0.737 0.635 1.464 1.741 1.485 2.642 0.123 4.137-0.020 8.284-0.061 12.933-28.58-14.694-56.699-29.153-85.176-43.776-0.215 19.026-0.44 37.448-0.563 55.88 0 0.901 0.799 1.966 1.495 2.703 8.356 8.632 16.763 17.193 25.139 25.805 0.604 0.635 1.382 1.485 1.382 2.253 0.102 4.372-0.020 8.745-0.082 13.394-1.178-0.338-2.058-0.563-2.918-0.86-12.339-4.27-24.719-8.53-37.059-12.872-1.864-0.655-3.482-0.635-5.335-0.020-12.38 4.045-24.76 7.987-37.14 11.95-0.922 0.297-1.864 0.481-3.082 0.799 0.041-4.188-0.041-8.079 0.205-11.94 0.082-1.27 0.696-2.785 1.577-3.676 8.458-8.417 16.978-16.732 25.539-25.037 1.178-1.116 1.741-2.263 1.761-3.932 0.123-17.408 0.358-34.826 0.543-52.234 0.020-0.717-0.061-1.444-0.123-2.458-28.744 13.957-57.18 27.771-85.975 41.769 0.061-4.301 0.184-8.161 0.102-12.022-0.041-1.72 0.604-2.765 1.884-3.799 7.199-5.837 14.377-11.704 21.555-17.541l0.164-12.104c0.041-3.564 2.959-6.42 6.502-6.38 3.564 0.041 6.441 2.98 6.4 6.523l-0.061 1.321c5.755-4.659 11.459-9.318 17.203-13.998l0.143-12.001c0.041-3.564 2.959-6.441 6.502-6.4 3.584 0.061 6.441 2.98 6.4 6.543v1.239c6.042-4.936 12.104-9.882 18.156-14.838 0.881-0.696 1.597-2.161 1.618-3.297 0.236-8.54 0.184-17.080 0.399-25.6 0.205-7.741 0.922-15.401 4.639-22.385 2.099-3.942 5.1-7.076 10.097-6.881 5.386 0.236 8.161 3.901 10.168 8.335z" />
<glyph unicode="&#xe63a;" d="M845.722 448c0-184.023-149.699-333.722-333.711-333.722v-21.555c195.891 0 355.277 159.375 355.277 355.287h-21.565z" />
<glyph unicode="&#xe63b;" d="M642.662 637.594c-2.509 2.519-6.584 2.519-9.114 0l-198.533-198.533-52.306 52.306c-2.509 2.509-6.595 2.509-9.103 0l-23.572-23.562c-2.509-2.519-2.509-6.595 0-9.103l80.425-80.425c1.26-1.27 2.908-1.905 4.547-1.905 1.649 0 3.297 0.635 4.557 1.905l226.652 226.632c1.198 1.219 1.884 2.847 1.884 4.557s-0.676 3.348-1.884 4.547l-23.552 23.583zM788.48 752.886h-552.96c-16.937 0-30.72-13.783-30.72-30.72v-443.699c0-16.937 13.783-30.72 30.72-30.72h215.040v-45.548c-35.4 0.010-70.81 0.031-106.209 0.051h-0.133c-21.248 0-36.393-10.138-50.944-23.491l-7.332-6.912c-13.629-14.5-11.141-30.085-5.11-37.499 6.042-7.393 16.087-11.52 28.293-11.633 7.66-0.061 15.841-0.092 25.784-0.092 0.020 0 0.020 0 0.041 0 6.707 0 13.445 0.020 20.183 0.031 6.748 0.010 13.466 0.031 20.183 0.031h273.172c6.707 0 13.435-0.020 20.183-0.031 6.728-0.010 13.476-0.031 20.183-0.031 0.020 0 0.020 0 0.041 0 9.953 0 18.135 0.031 25.784 0.092 12.196 0.113 22.262 4.239 28.293 11.633 6.052 7.434 7.629 25.324-5.11 37.499l-7.322 6.912c-15.913 14.193-29.686 23.491-50.954 23.491h-0.133c-31.898-0.020-78.797-0.041-114.995-0.041v45.537h224.020c16.937 0 30.72 13.783 30.72 30.72v443.699c0 16.947-13.783 30.72-30.72 30.72zM783.135 339.661c0-8.806-7.148-15.954-15.954-15.954h-511.283c-8.796 0-15.933 7.137-15.933 15.954v356.966c0 8.806 7.127 15.944 15.933 15.944h511.283c8.796 0 15.954-7.137 15.954-15.944v-356.966z" />
<glyph unicode="&#xe63c;" d="M512 768.246c-176.589 0-320.246-143.657-320.246-320.246s143.657-320.246 320.246-320.246 320.246 143.657 320.246 320.246-143.657 320.246-320.246 320.246zM505.231 652.564c25.262 0 45.742-20.48 45.742-45.742s-20.48-45.742-45.742-45.742-45.742 20.48-45.742 45.742 20.48 45.742 45.742 45.742zM578.079 266.179h-129.362c-10.332 0-18.688 8.366-18.678 18.668l-0.010 11.315c0.010 10.312 8.356 18.668 18.688 18.668h36.26v152.955h-11.776c-10.332 0-18.688 8.376-18.678 18.678l-0.010 11.315c0.010 10.312 8.356 18.678 18.688 18.678h47.759c0 0 0 0 0.020 0h2.161c10.301-0.010 18.678-8.366 18.678-18.678v-182.958h36.26c10.332 0 18.678-8.356 18.678-18.668l0.010-11.315c-0.020-10.281-8.366-18.657-18.688-18.657z" />
<glyph unicode="&#xe63d;" d="M748.943 772.024c-4.311 1.823-9.288 0.85-12.636-2.427l-49.9-49.029-49.961 49.961c-4.536 4.536-11.889 4.536-16.425 0l-49.9-49.9-49.889 49.9c-4.536 4.536-11.899 4.536-16.435 0l-49.889-49.9-49.9 49.9c-4.536 4.536-11.889 4.536-16.425 0l-49.981-49.961-49.879 49.029c-3.338 3.277-8.325 4.25-12.636 2.427-4.332-1.802-7.127-6.021-7.127-10.711v-627.62c0-4.7 2.816-8.95 7.168-10.742 1.444-0.604 2.949-0.891 4.454-0.891 3.021 0 5.99 1.178 8.223 3.41l50.391 50.391 49.398-49.377c4.485-4.495 11.735-4.547 16.302-0.143l51.323 49.603 48.527-49.388c2.171-2.212 5.151-3.461 8.243-3.471 3.236-0.256 6.083 1.208 8.274 3.4l49.889 49.9 49.9-49.9c4.536-4.536 11.889-4.536 16.425 0l49.828 49.828 49.889-50.77c3.318-3.379 8.335-4.403 12.687-2.611 4.362 1.792 7.219 6.031 7.219 10.762v627.61c-0.031 4.69-2.836 8.909-7.158 10.721zM592.108 287.519h-225.526c-9.902 0-17.879 7.997-17.879 17.879 0 9.892 7.977 17.889 17.879 17.889h225.526c9.871 0 17.889-7.997 17.889-17.889 0-9.882-8.018-17.879-17.889-17.879zM348.703 448.502c0 9.892 7.977 17.9 17.879 17.9h180.419c9.882 0 17.889-8.008 17.889-17.9 0-9.882-8.008-17.889-17.889-17.889h-180.419c-9.902 0.010-17.879 8.008-17.879 17.889zM637.215 573.727h-270.633c-9.902 0-17.879 7.997-17.879 17.889 0 9.882 7.977 17.889 17.879 17.889h270.633c9.882 0 17.889-7.997 17.889-17.889s-8.018-17.889-17.889-17.889z" />
<glyph unicode="&#xe63e;" d="M512 760.996c-172.882 0-312.986-140.134-312.986-312.996s140.104-312.996 312.986-312.996 312.986 140.124 312.986 312.996-140.104 312.996-312.986 312.996zM698.952 551.844l-268.554-268.575c-4.567-4.547-12.575-4.516-17.111-0.020l-111.002 111.012c-4.731 4.7-4.731 12.401 0 17.121l21.074 21.064c2.273 2.294 5.315 3.543 8.55 3.543s6.287-1.249 8.571-3.543l81.347-81.357 238.95 238.93c4.475 4.485 12.646 4.485 17.121 0l21.053-21.064c4.731-4.71 4.731-12.401 0-17.111z" />
<glyph unicode="&#xe63f;" d="M254.239 546.417l246.661-246.671c5.898-5.847 16.292-5.888 22.231 0.020l246.641 246.651c6.144 6.134 6.144 16.128 0 22.252l-27.372 27.372c-5.796 5.816-16.435 5.816-22.262 0l-208.138-208.128-208.138 208.128c-2.959 2.98-6.922 4.608-11.131 4.608-4.198 0-8.161-1.628-11.121-4.608l-27.372-27.372c-6.144-6.113-6.144-16.118 0-22.252z" />
<glyph unicode="&#xe640;" d="M512 762.798c-173.875 0-314.798-140.943-314.798-314.798s140.923-314.798 314.798-314.798c173.865 0 314.808 140.943 314.808 314.798s-140.943 314.798-314.808 314.798zM658.698 338.565c6.779-6.769 6.738-17.725 0-24.504l-12.78-12.759c-6.758-6.769-17.715-6.769-24.504 0l-109.414 109.425-109.425-109.414c-6.779-6.769-17.736-6.769-24.504 0l-12.78 12.759c-6.758 6.769-6.769 17.725 0 24.504l109.425 109.425-109.425 109.425c-6.769 6.769-6.758 17.736 0 24.515l12.78 12.759c6.758 6.758 17.715 6.769 24.504 0l109.425-109.414 109.425 109.414c6.779 6.769 17.736 6.758 24.504 0l12.78-12.759c6.738-6.769 6.779-17.736 0-24.515l-109.425-109.425 109.414-109.435z" />
<glyph unicode="&#xe641;" d="M310.323 260.997l43.018 98.222 70.042-70.031-98.509-42.721zM447.427 299.336l14.438 7.905 251.812 251.812-90.481 90.481-251.791-251.812-7.905-14.438z" />
<glyph unicode="&#xe642;" d="M632.668 190.239l27.372 27.372c2.98 2.959 4.608 6.922 4.608 11.121 0 4.209-1.628 8.172-4.608 11.131l-208.128 208.138 208.128 208.138c5.816 5.827 5.816 16.466 0 22.262l-27.372 27.372c-6.134 6.144-16.118 6.144-22.252 0l-246.661-246.641c-5.898-5.939-5.857-16.333-0.020-22.231l246.682-246.661c6.134-6.134 16.148-6.134 22.252 0z" />
</font>
</defs>
</svg>
